STARTFONT 2.1
COMMENT
COMMENT Converted from OpenType font "BeVietnam-Thin.ttf" by "otf2bdf 3.0".
COMMENT
FONT -FreeType-Be Vietnam Thin-Medium-R-Normal--39-280-100-100-P-172-ISO10646-1
SIZE 28 100 100
FONTBOUNDINGBOX 60 51 -13 -10
STARTPROPERTIES 19
FOUNDRY "FreeType"
FAMILY_NAME "Be Vietnam Thin"
WEIGHT_NAME "Medium"
SLANT "R"
SETWIDTH_NAME "Normal"
ADD_STYLE_NAME ""
PIXEL_SIZE 39
POINT_SIZE 280
RESOLUTION_X 100
RESOLUTION_Y 100
SPACING "P"
AVERAGE_WIDTH 172
CHARSET_REGISTRY "ISO10646"
CHARSET_ENCODING "1"
FONT_ASCENT 46
FONT_DESCENT 10
COPYRIGHT "Copyright 2019 The Bevietnam Project Authors (https://github.com/bettergui/beVietnam)"
_OTF_FONTFILE "BeVietnam-Thin.ttf"
_OTF_PSNAME "BeVietnam-Thin"
ENDPROPERTIES
CHARS 445
STARTCHAR 000D
ENCODING 13
SWIDTH 591 0
DWIDTH 23 0
BBX 0 0 0 0
BITMAP
ENDCHAR
STARTCHAR 0020
ENCODING 32
SWIDTH 205 0
DWIDTH 8 0
BBX 0 0 0 0
BITMAP
ENDCHAR
STARTCHAR 0021
ENCODING 33
SWIDTH 205 0
DWIDTH 8 0
BBX 2 30 3 0
BITMAP
C0
C0
C0
C0
C0
C0
C0
C0
C0
C0
C0
C0
C0
C0
C0
C0
40
40
40
40
40
40
40
40
40
00
00
00
C0
C0
ENDCHAR
STARTCHAR 0022
ENCODING 34
SWIDTH 488 0
DWIDTH 19 0
BBX 12 8 4 21
BITMAP
1000
3060
4040
40C0
C080
C0C0
F0F0
70F0
ENDCHAR
STARTCHAR 0023
ENCODING 35
SWIDTH 848 0
DWIDTH 33 0
BBX 27 27 3 0
BITMAP
00100400
00100400
00300400
00300C00
00300C00
00200800
00200800
00600800
7FFFFFE0
00401800
00401000
00401000
00C03000
00C03000
00802000
00802000
01802000
7FFFFFC0
FFFFFFC0
01004000
01004000
0300C000
0300C000
02008000
02008000
02008000
06018000
ENDCHAR
STARTCHAR 0024
ENCODING 36
SWIDTH 540 0
DWIDTH 21 0
BBX 17 32 2 -3
BITMAP
008000
008000
07F000
1C9C00
308600
208200
608300
408100
408180
408180
408000
408000
608000
308000
1E8000
03F800
008E00
008300
008180
008080
808080
808080
C08080
408080
608180
208100
308300
0C8E00
07F800
008000
008000
008000
ENDCHAR
STARTCHAR 0025
ENCODING 37
SWIDTH 848 0
DWIDTH 33 0
BBX 31 28 1 0
BITMAP
06000000
33800200
40800600
C0C00C00
C0400800
80401800
80401000
C0403000
C0C02000
40806000
33804000
0400C000
00008000
00018000
00010000
00030000
00020000
000600F0
0004030C
000C0204
00080606
00180402
00100402
00300402
00200602
00600606
00400204
00C001F8
ENDCHAR
STARTCHAR 0026
ENCODING 38
SWIDTH 591 0
DWIDTH 23 0
BBX 22 28 3 0
BITMAP
007000
01FE00
030300
040180
0C0180
0C0080
0C0080
0C00C0
0C0000
040000
060000
030000
010000
018000
074000
186030
203060
401860
C00CC0
800680
800380
800100
800380
C00640
400C60
601830
383018
0FC00C
ENDCHAR
STARTCHAR 0027
ENCODING 39
SWIDTH 282 0
DWIDTH 11 0
BBX 3 8 4 22
BITMAP
E0
E0
E0
20
20
20
40
80
ENDCHAR
STARTCHAR 0028
ENCODING 40
SWIDTH 411 0
DWIDTH 16 0
BBX 9 38 5 -8
BITMAP
0180
0300
0600
0C00
0800
1800
3000
3000
6000
6000
4000
C000
C000
C000
C000
8000
8000
8000
8000
8000
8000
8000
8000
C000
C000
C000
C000
4000
6000
2000
3000
1000
1800
0800
0400
0200
0100
0080
ENDCHAR
STARTCHAR 0029
ENCODING 41
SWIDTH 411 0
DWIDTH 16 0
BBX 9 38 3 -8
BITMAP
8000
4000
2000
3000
1800
0C00
0400
0600
0600
0300
0300
0300
0100
0180
0180
0180
0180
0180
0180
0180
0180
0180
0180
0180
0180
0100
0300
0300
0300
0600
0600
0C00
0C00
1800
3000
2000
4000
8000
ENDCHAR
STARTCHAR 002A
ENCODING 42
SWIDTH 488 0
DWIDTH 19 0
BBX 13 14 3 16
BITMAP
0300
0300
0200
6218
F278
3AE0
0780
0F80
3AE0
F278
4218
0200
0300
0300
ENDCHAR
STARTCHAR 002B
ENCODING 43
SWIDTH 565 0
DWIDTH 22 0
BBX 14 14 4 5
BITMAP
0300
0300
0300
0300
0300
0300
FFFC
0300
0300
0300
0300
0300
0300
0300
ENDCHAR
STARTCHAR 002C
ENCODING 44
SWIDTH 231 0
DWIDTH 9 0
BBX 4 8 3 -5
BITMAP
60
F0
F0
30
30
20
20
C0
ENDCHAR
STARTCHAR 002D
ENCODING 45
SWIDTH 591 0
DWIDTH 23 0
BBX 14 1 5 12
BITMAP
FFFC
ENDCHAR
STARTCHAR 002E
ENCODING 46
SWIDTH 205 0
DWIDTH 8 0
BBX 3 3 3 0
BITMAP
40
E0
E0
ENDCHAR
STARTCHAR 002F
ENCODING 47
SWIDTH 462 0
DWIDTH 18 0
BBX 15 37 3 -5
BITMAP
0006
0004
0004
000C
0008
0018
0018
0010
0030
0020
0020
0060
0040
00C0
00C0
0080
0180
0100
0100
0300
0200
0200
0600
0400
0C00
0C00
0800
1800
1000
1000
3000
2000
6000
6000
4000
C000
8000
ENDCHAR
STARTCHAR 0030
ENCODING 48
SWIDTH 565 0
DWIDTH 22 0
BBX 18 28 2 0
BITMAP
01F000
07FC00
0C0600
100100
200180
200080
4000C0
400040
400040
400040
C00040
C00040
C00040
C00040
C00040
C00040
C00040
C00040
C00040
400040
400040
400040
6000C0
200080
300180
180300
0E0E00
03F800
ENDCHAR
STARTCHAR 0031
ENCODING 49
SWIDTH 462 0
DWIDTH 18 0
BBX 12 27 4 0
BITMAP
0600
0A00
1200
2200
4200
8200
0200
0200
0200
0200
0200
0200
0200
0200
0200
0200
0200
0200
0200
0200
0200
0200
0200
0200
0200
0200
7FF0
ENDCHAR
STARTCHAR 0032
ENCODING 50
SWIDTH 565 0
DWIDTH 22 0
BBX 17 28 3 0
BITMAP
03F000
0FFC00
180600
300300
200100
600180
400080
400080
400080
000080
000180
000100
000300
000200
000600
000C00
001800
003000
006000
00C000
018000
030000
060000
0C0000
180000
200000
C00000
FFFF80
ENDCHAR
STARTCHAR 0033
ENCODING 51
SWIDTH 565 0
DWIDTH 22 0
BBX 17 28 3 0
BITMAP
01F000
0FFC00
180600
300300
600100
400180
000080
000080
000080
000180
000100
000300
000600
03F800
03F800
000600
000300
000180
000080
000080
000080
000080
C00080
400180
600100
300300
1C0E00
07F800
ENDCHAR
STARTCHAR 0034
ENCODING 52
SWIDTH 565 0
DWIDTH 22 0
BBX 19 27 2 0
BITMAP
000C00
000C00
001400
003400
006400
004400
00C400
018400
010400
030400
060400
040400
0C0400
180400
100400
200400
600400
C00400
800400
FFFFE0
000400
000400
000400
000400
000400
000400
000400
ENDCHAR
STARTCHAR 0035
ENCODING 53
SWIDTH 591 0
DWIDTH 23 0
BBX 17 27 4 0
BITMAP
7FFE00
400000
400000
400000
400000
400000
400000
400000
408000
4FF800
D80C00
F00600
E00300
C00100
000180
000080
000080
000080
000080
000080
000080
800180
C00100
600300
300600
1E3C00
07E000
ENDCHAR
STARTCHAR 0036
ENCODING 54
SWIDTH 565 0
DWIDTH 22 0
BBX 17 27 3 0
BITMAP
004000
00C000
018000
030000
020000
060000
0C0000
080000
180000
300000
27E000
7E3C00
700600
E00300
C00100
C00180
800080
800080
800080
800080
800080
C00180
400100
600300
300600
1C1C00
07F000
ENDCHAR
STARTCHAR 0037
ENCODING 55
SWIDTH 488 0
DWIDTH 19 0
BBX 16 27 1 0
BITMAP
FFFF
0001
0003
0002
0006
0006
0004
000C
0008
0018
0010
0010
0030
0020
0060
0040
00C0
00C0
0080
0180
0100
0300
0200
0200
0600
0400
0C00
ENDCHAR
STARTCHAR 0038
ENCODING 56
SWIDTH 591 0
DWIDTH 23 0
BBX 18 28 3 0
BITMAP
01F000
0FFC00
180600
300300
600100
400180
400080
400080
400080
600180
200100
300300
1C0E00
07F800
1C0E00
200300
400080
C000C0
800040
800040
800040
800040
800040
C000C0
400080
600300
1C0E00
07F800
ENDCHAR
STARTCHAR 0039
ENCODING 57
SWIDTH 565 0
DWIDTH 22 0
BBX 17 28 3 0
BITMAP
03E000
0FF800
380C00
600200
400300
C00100
800180
800080
800080
800080
800080
800180
C00180
400380
600300
380D00
0FFA00
03E600
000400
000C00
001800
001000
003000
006000
004000
00C000
018000
010000
ENDCHAR
STARTCHAR 003A
ENCODING 58
SWIDTH 231 0
DWIDTH 9 0
BBX 2 20 3 0
BITMAP
C0
C0
C0
00
00
00
00
00
00
00
00
00
00
00
00
00
00
80
C0
C0
ENDCHAR
STARTCHAR 003B
ENCODING 59
SWIDTH 257 0
DWIDTH 10 0
BBX 4 25 3 -5
BITMAP
E0
E0
40
00
00
00
00
00
00
00
00
00
00
00
00
00
00
60
F0
F0
30
30
20
60
C0
ENDCHAR
STARTCHAR 003C
ENCODING 60
SWIDTH 540 0
DWIDTH 21 0
BBX 14 16 4 5
BITMAP
0004
001C
0070
01C0
0300
0C00
3800
E000
C000
3000
1C00
0700
0180
0060
0038
000C
ENDCHAR
STARTCHAR 003D
ENCODING 61
SWIDTH 694 0
DWIDTH 27 0
BBX 18 10 5 8
BITMAP
FFFFC0
FFFFC0
000000
000000
000000
000000
000000
000000
000000
FFFFC0
ENDCHAR
STARTCHAR 003E
ENCODING 62
SWIDTH 540 0
DWIDTH 21 0
BBX 14 16 4 5
BITMAP
8000
E000
3000
0C00
0700
01C0
0070
0018
000C
0030
00C0
0380
0E00
3800
6000
8000
ENDCHAR
STARTCHAR 003F
ENCODING 63
SWIDTH 565 0
DWIDTH 22 0
BBX 17 28 3 0
BITMAP
07E000
1F7C00
300600
600300
400100
C00180
800180
800180
000180
000180
000100
000300
000600
000400
001800
003000
006000
004000
008000
018000
018000
000000
000000
000000
000000
000000
018000
018000
ENDCHAR
STARTCHAR 0040
ENCODING 64
SWIDTH 1002 0
DWIDTH 39 0
BBX 34 34 3 -6
BITMAP
0003E00000
003FFE0000
00E003C000
038000E000
0600003800
0C00001C00
1800000C00
3000000600
3000000300
6007880100
401FE80180
4030280180
C060180080
C040180080
80400800C0
80C00800C0
80C00800C0
80C00800C0
80C0080080
8040080080
80401C0180
C060140100
C020360300
4038630E00
600FC1F800
6000000000
3000000000
1000000000
1800000000
0C00000000
0700000000
0180000000
00F0000000
001FFFFC00
ENDCHAR
STARTCHAR 0041
ENCODING 65
SWIDTH 668 0
DWIDTH 26 0
BBX 23 27 2 0
BITMAP
003000
003800
006800
004800
004C00
00C400
008600
008200
018200
010300
030100
020180
020080
060080
0400C0
0C0040
080060
0FFFE0
180020
100030
300010
200018
200008
600008
40000C
C00004
C00006
ENDCHAR
STARTCHAR 0042
ENCODING 66
SWIDTH 617 0
DWIDTH 24 0
BBX 19 27 4 0
BITMAP
FFFC00
800E00
800300
800180
800080
800080
8000C0
8000C0
800080
800180
800100
800600
FFFC00
FFFE00
800300
800080
8000C0
800040
800040
800060
800040
800040
8000C0
800080
800180
801F00
FFFC00
ENDCHAR
STARTCHAR 0043
ENCODING 67
SWIDTH 720 0
DWIDTH 28 0
BBX 23 28 3 0
BITMAP
007E00
03FF80
0E00E0
180030
300018
20000C
600004
400006
C00002
C00000
800000
800000
800000
800000
800000
800000
800000
800000
C00000
C00000
400006
600004
20000C
300018
180030
0C0060
0783C0
01FF00
ENDCHAR
STARTCHAR 0044
ENCODING 68
SWIDTH 668 0
DWIDTH 26 0
BBX 21 27 4 0
BITMAP
FFF800
800E00
800380
8000C0
800060
800020
800030
800010
800010
800018
800018
800008
800008
800008
800008
800008
800018
800018
800010
800010
800030
800060
800040
8001C0
800380
803E00
FFF800
ENDCHAR
STARTCHAR 0045
ENCODING 69
SWIDTH 565 0
DWIDTH 22 0
BBX 15 27 4 0
BITMAP
FFFE
8000
8000
8000
8000
8000
8000
8000
8000
8000
8000
8000
FFFC
FFFC
8000
8000
8000
8000
8000
8000
8000
8000
8000
8000
8000
8000
FFFE
ENDCHAR
STARTCHAR 0046
ENCODING 70
SWIDTH 514 0
DWIDTH 20 0
BBX 15 27 4 0
BITMAP
FFFE
8000
8000
8000
8000
8000
8000
8000
8000
8000
8000
8000
FFF8
FFF8
8000
8000
8000
8000
8000
8000
8000
8000
8000
8000
8000
8000
8000
ENDCHAR
STARTCHAR 0047
ENCODING 71
SWIDTH 694 0
DWIDTH 27 0
BBX 23 28 2 0
BITMAP
007E00
01FFC0
070060
0C0010
180008
10000C
300004
200006
600000
400000
400000
400000
C00000
C00000
C00000
C007FE
400002
400002
400002
600002
600006
200006
300006
18000A
0C0012
060032
03C1C2
00FF82
ENDCHAR
STARTCHAR 0048
ENCODING 72
SWIDTH 668 0
DWIDTH 26 0
BBX 19 27 4 0
BITMAP
800060
800060
800060
800060
800060
800060
800060
800060
800060
800060
800060
800060
800060
FFFFE0
800060
800060
800060
800060
800060
800060
800060
800060
800060
800060
800060
800060
800060
ENDCHAR
STARTCHAR 0049
ENCODING 73
SWIDTH 205 0
DWIDTH 8 0
BBX 1 27 4 0
BITMAP
80
80
80
80
80
80
80
80
80
80
80
80
80
80
80
80
80
80
80
80
80
80
80
80
80
80
80
ENDCHAR
STARTCHAR 004A
ENCODING 74
SWIDTH 308 0
DWIDTH 12 0
BBX 7 27 2 0
BITMAP
06
06
06
06
06
06
06
06
06
06
06
06
06
06
06
06
06
06
06
06
06
06
06
06
04
0C
F8
ENDCHAR
STARTCHAR 004B
ENCODING 75
SWIDTH 591 0
DWIDTH 23 0
BBX 17 27 3 0
BITMAP
C00700
C00400
C00C00
C01800
C03000
C06000
C0C000
C18000
C30000
C60000
CC0000
D80000
F80000
EC0000
C60000
C30000
C18000
C0C000
C04000
C06000
C03000
C01800
C00C00
C00600
C00200
C00100
C00180
ENDCHAR
STARTCHAR 004C
ENCODING 76
SWIDTH 514 0
DWIDTH 20 0
BBX 15 27 4 0
BITMAP
8000
8000
8000
8000
8000
8000
8000
8000
8000
8000
8000
8000
8000
8000
8000
8000
8000
8000
8000
8000
8000
8000
8000
8000
8000
8000
FFFE
ENDCHAR
STARTCHAR 004D
ENCODING 77
SWIDTH 797 0
DWIDTH 31 0
BBX 24 27 4 0
BITMAP
C00003
C00007
E00007
E0000F
A0000B
B0000B
90001B
980013
880033
880023
8C0023
840063
860043
8200C3
820083
830183
810183
818103
808303
808203
80C603
804603
806403
802C03
803803
803803
801803
ENDCHAR
STARTCHAR 004E
ENCODING 78
SWIDTH 720 0
DWIDTH 28 0
BBX 20 27 4 0
BITMAP
800010
C00010
E00010
B00010
900010
980010
8C0010
860010
820010
830010
818010
808010
804010
806010
803010
801010
801810
800C10
800610
800210
800310
800190
800090
800050
800070
800030
800010
ENDCHAR
STARTCHAR 004F
ENCODING 79
SWIDTH 720 0
DWIDTH 28 0
BBX 25 28 2 0
BITMAP
003E0000
01FFC000
07007000
0C001800
18000C00
10000400
30000600
20000200
60000300
40000100
40000100
40000100
C0000100
C0000180
C0000180
C0000180
C0000100
40000100
40000100
60000300
60000300
20000200
30000600
18000C00
0C001800
06003000
03C1E000
00FF8000
ENDCHAR
STARTCHAR 0050
ENCODING 80
SWIDTH 565 0
DWIDTH 22 0
BBX 17 27 4 0
BITMAP
FFF000
801C00
800600
800300
800100
800180
800080
800080
800080
800080
800080
800180
800100
800300
800E00
FFF800
FFE000
800000
800000
800000
800000
800000
800000
800000
800000
800000
800000
ENDCHAR
STARTCHAR 0051
ENCODING 81
SWIDTH 720 0
DWIDTH 28 0
BBX 25 31 2 -3
BITMAP
003E0000
01FFC000
07007000
0C001800
18000C00
10000400
30000600
20000200
60000300
40000100
40000100
40000100
C0000100
C0000180
C0000180
C0000180
C0000100
40000100
400C0100
60060300
60030300
20010200
30018600
1800CC00
0C007800
06003000
03C1F800
00FF8800
00000C00
00000600
00000300
ENDCHAR
STARTCHAR 0052
ENCODING 82
SWIDTH 591 0
DWIDTH 23 0
BBX 17 27 4 0
BITMAP
FFF000
801C00
800600
800100
800180
800080
800080
800080
800080
800080
800100
800100
800600
801C00
FFF000
818000
80C000
804000
806000
803000
801000
801800
800C00
800600
800200
800300
800180
ENDCHAR
STARTCHAR 0053
ENCODING 83
SWIDTH 591 0
DWIDTH 23 0
BBX 19 28 2 0
BITMAP
01F000
0FFE00
1C0300
300180
200080
6000C0
600040
400040
600040
600000
200000
300000
1C0000
07E000
007C00
000700
0001C0
0000C0
000060
C00060
C00060
400060
400060
600040
3000C0
180180
0E0700
03FC00
ENDCHAR
STARTCHAR 0054
ENCODING 84
SWIDTH 565 0
DWIDTH 22 0
BBX 19 27 2 0
BITMAP
FFFFE0
004000
004000
004000
004000
004000
004000
004000
004000
004000
004000
004000
004000
004000
004000
004000
004000
004000
004000
004000
004000
004000
004000
004000
004000
004000
004000
ENDCHAR
STARTCHAR 0055
ENCODING 85
SWIDTH 668 0
DWIDTH 26 0
BBX 21 27 3 0
BITMAP
800018
800018
800018
800018
800018
800018
800018
800018
800018
800018
800018
800018
800018
800018
800018
800018
800018
800010
C00010
C00010
400030
400020
600020
300040
1800C0
0E0380
03FE00
ENDCHAR
STARTCHAR 0056
ENCODING 86
SWIDTH 591 0
DWIDTH 23 0
BBX 22 27 1 0
BITMAP
80000C
C00008
400008
400018
600010
200010
300030
100020
100060
180040
080040
0800C0
0C0080
040080
060180
060100
020300
030300
010200
010600
018400
008400
008C00
00C800
004800
007800
007000
ENDCHAR
STARTCHAR 0057
ENCODING 87
SWIDTH 977 0
DWIDTH 38 0
BBX 37 27 1 0
BITMAP
8000600018
C000700010
C000500010
4000D00030
4000980020
6000880020
2001880020
20010C0060
3001040040
3003040040
10020600C0
10020200C0
1806020080
0804030080
0804010180
0C0C010100
0C08018100
0408008300
0418008300
061000C200
0210004200
0230004600
0220006400
0320002400
0160002C00
0140003C00
01C0001800
ENDCHAR
STARTCHAR 0058
ENCODING 88
SWIDTH 617 0
DWIDTH 24 0
BBX 21 27 2 0
BITMAP
400010
600030
300060
100040
1800C0
0C0180
040100
060300
030600
010400
018C00
00D800
007000
007000
005000
00D800
018C00
030600
030600
060300
0C0180
080180
1800C0
300060
200020
600030
C00018
ENDCHAR
STARTCHAR 0059
ENCODING 89
SWIDTH 565 0
DWIDTH 22 0
BBX 18 27 2 0
BITMAP
C00040
4000C0
600080
200180
300100
100300
180200
080600
0C0C00
040C00
061800
021800
033000
013000
01E000
00E000
00C000
00C000
00C000
00C000
00C000
00C000
00C000
00C000
00C000
00C000
00C000
ENDCHAR
STARTCHAR 005A
ENCODING 90
SWIDTH 591 0
DWIDTH 23 0
BBX 18 27 2 0
BITMAP
FFFFC0
0000C0
0000C0
000180
000300
000300
000600
000C00
000C00
001800
003000
002000
006000
00C000
008000
018000
030000
020000
060000
0C0000
080000
180000
300000
200000
600000
C00000
FFFFC0
ENDCHAR
STARTCHAR 005B
ENCODING 91
SWIDTH 385 0
DWIDTH 15 0
BBX 10 37 3 -6
BITMAP
FFC0
8000
8000
8000
8000
8000
8000
8000
8000
8000
8000
8000
8000
8000
8000
8000
8000
8000
8000
8000
8000
8000
8000
8000
8000
8000
8000
8000
8000
8000
8000
8000
8000
8000
8000
8000
FFC0
ENDCHAR
STARTCHAR 005C
ENCODING 92
SWIDTH 462 0
DWIDTH 18 0
BBX 15 37 1 -5
BITMAP
C000
4000
4000
6000
2000
2000
3000
1000
1800
1800
0800
0C00
0400
0400
0600
0200
0200
0300
0100
0180
0180
0080
00C0
0040
0040
0060
0020
0030
0030
0010
0018
0008
0008
000C
0004
0004
0006
ENDCHAR
STARTCHAR 005D
ENCODING 93
SWIDTH 385 0
DWIDTH 15 0
BBX 10 37 3 -6
BITMAP
FFC0
0040
0040
0040
0040
0040
0040
0040
0040
0040
0040
0040
0040
0040
0040
0040
0040
0040
0040
0040
0040
0040
0040
0040
0040
0040
0040
0040
0040
0040
0040
0040
0040
0040
0040
0040
FFC0
ENDCHAR
STARTCHAR 005E
ENCODING 94
SWIDTH 411 0
DWIDTH 16 0
BBX 12 7 2 22
BITMAP
0600
0900
1980
30C0
6060
4030
8010
ENDCHAR
STARTCHAR 005F
ENCODING 95
SWIDTH 694 0
DWIDTH 27 0
BBX 18 1 5 0
BITMAP
FFFFC0
ENDCHAR
STARTCHAR 0060
ENCODING 96
SWIDTH 180 0
DWIDTH 7 0
BBX 6 7 1 24
BITMAP
C0
60
20
30
10
08
0C
ENDCHAR
STARTCHAR 0061
ENCODING 97
SWIDTH 617 0
DWIDTH 24 0
BBX 19 21 2 0
BITMAP
03F800
0F1C60
180260
300160
2000E0
6000E0
400060
400060
C00060
C00060
C00060
C00060
C00060
400060
400060
6000E0
2000E0
300160
180360
0E0C60
03F860
ENDCHAR
STARTCHAR 0062
ENCODING 98
SWIDTH 617 0
DWIDTH 24 0
BBX 18 29 4 0
BITMAP
800000
800000
800000
800000
800000
800000
800000
800000
83F000
8E3C00
980600
A00300
E00180
C00080
C00080
8000C0
8000C0
800040
800040
800040
8000C0
8000C0
C00080
C00080
E00180
A00300
900600
8E1C00
87F800
ENDCHAR
STARTCHAR 0063
ENCODING 99
SWIDTH 565 0
DWIDTH 22 0
BBX 19 21 2 0
BITMAP
03F800
071E00
1C0300
100180
3000C0
600040
600040
400060
400000
C00000
C00000
C00000
400000
400000
400040
600040
2000C0
300180
180300
0E0E00
03FC00
ENDCHAR
STARTCHAR 0064
ENCODING 100
SWIDTH 617 0
DWIDTH 24 0
BBX 19 29 2 0
BITMAP
000060
000060
000060
000060
000060
000060
000060
000060
03F860
0F1C60
180260
300160
2000E0
6000E0
400060
400060
C00060
C00060
C00060
C00060
C00060
400060
400060
6000E0
2000E0
300160
180360
0E0C60
03F860
ENDCHAR
STARTCHAR 0065
ENCODING 101
SWIDTH 565 0
DWIDTH 22 0
BBX 18 21 2 0
BITMAP
03F800
070E00
180300
100180
200080
6000C0
600040
400040
400040
C00040
FFFFC0
C00000
400000
400000
400000
600040
2000C0
300180
180300
0E0E00
03F800
ENDCHAR
STARTCHAR 0066
ENCODING 102
SWIDTH 334 0
DWIDTH 13 0
BBX 10 29 2 0
BITMAP
0180
0FC0
0800
1800
1800
1800
1800
1800
1800
FFC0
1800
1800
1800
1800
1800
1800
1800
1800
1800
1800
1800
1800
1800
1800
1800
1800
1800
1800
1800
ENDCHAR
STARTCHAR 0067
ENCODING 103
SWIDTH 617 0
DWIDTH 24 0
BBX 19 29 2 -8
BITMAP
03F800
0F1E20
180320
300120
2000A0
6000E0
400060
400060
C00060
C00060
C00060
C00060
400060
400060
6000E0
2000E0
3001A0
180320
0E0620
07FC20
000060
000060
000060
000040
0000C0
000080
000300
01FE00
007000
ENDCHAR
STARTCHAR 0068
ENCODING 104
SWIDTH 617 0
DWIDTH 24 0
BBX 17 29 4 0
BITMAP
800000
800000
800000
800000
800000
800000
800000
800000
83F000
8F7C00
900E00
A00300
C00100
C00100
800180
800080
800080
800080
800080
800080
800080
800080
800080
800080
800080
800080
800080
800080
800080
ENDCHAR
STARTCHAR 0069
ENCODING 105
SWIDTH 205 0
DWIDTH 8 0
BBX 3 27 3 0
BITMAP
C0
E0
00
00
00
00
00
40
40
40
40
40
40
40
40
40
40
40
40
40
40
40
40
40
40
40
40
ENDCHAR
STARTCHAR 006A
ENCODING 106
SWIDTH 205 0
DWIDTH 8 0
BBX 7 35 -1 -8
BITMAP
0E
0E
00
00
00
00
00
04
04
04
04
04
04
04
04
04
04
04
04
04
04
04
04
04
04
04
04
04
04
04
04
04
04
0C
F8
ENDCHAR
STARTCHAR 006B
ENCODING 107
SWIDTH 462 0
DWIDTH 18 0
BBX 12 29 4 0
BITMAP
8000
8000
8000
8000
8000
8000
8000
8000
8000
8060
80C0
8180
8200
8C00
9800
B000
E000
8000
C000
A000
9000
8800
8400
8200
8100
8080
80C0
8060
8030
ENDCHAR
STARTCHAR 006C
ENCODING 108
SWIDTH 282 0
DWIDTH 11 0
BBX 5 29 4 0
BITMAP
80
80
80
80
80
80
80
80
80
80
80
80
80
80
80
80
80
80
80
80
80
80
80
80
80
80
80
C0
78
ENDCHAR
STARTCHAR 006D
ENCODING 109
SWIDTH 977 0
DWIDTH 38 0
BBX 32 21 4 0
BITMAP
07E007E0
8FF81EF0
900C3018
A006400C
C0028006
C0038002
80018002
80010002
80010003
80010003
80010003
80010003
80010003
80010003
80010003
80010003
80010003
80010003
80010003
80010003
80010003
ENDCHAR
STARTCHAR 006E
ENCODING 110
SWIDTH 617 0
DWIDTH 24 0
BBX 17 21 4 0
BITMAP
03F000
8F7C00
900E00
A00300
C00100
C00100
800180
800080
800080
800080
800080
800080
800080
800080
800080
800080
800080
800080
800080
800080
800080
ENDCHAR
STARTCHAR 006F
ENCODING 111
SWIDTH 591 0
DWIDTH 23 0
BBX 19 21 2 0
BITMAP
01F800
071E00
1C0300
100180
3000C0
600040
600040
400060
400060
C00020
C00020
C00020
400020
400060
400040
600040
2000C0
300180
180300
0E0E00
03F800
ENDCHAR
STARTCHAR 0070
ENCODING 112
SWIDTH 617 0
DWIDTH 24 0
BBX 18 29 4 -8
BITMAP
03F000
8E3C00
980600
A00300
E00180
C00080
C00080
8000C0
8000C0
800040
800040
800040
8000C0
8000C0
C00080
C00080
E00180
A00300
900600
8E1C00
87F800
800000
800000
800000
800000
800000
800000
800000
800000
ENDCHAR
STARTCHAR 0071
ENCODING 113
SWIDTH 617 0
DWIDTH 24 0
BBX 19 29 2 -8
BITMAP
03F800
0F1C60
180260
300160
2000E0
6000E0
400060
400060
C00060
C00060
C00060
C00060
C00060
400060
400060
6000E0
2000E0
300160
180360
0E0C60
03F860
000060
000060
000060
000060
000060
000060
000060
000060
ENDCHAR
STARTCHAR 0072
ENCODING 114
SWIDTH 308 0
DWIDTH 12 0
BBX 9 20 3 0
BITMAP
8F80
B800
A000
C000
C000
C000
8000
8000
8000
8000
8000
8000
8000
8000
8000
8000
8000
8000
8000
8000
ENDCHAR
STARTCHAR 0073
ENCODING 115
SWIDTH 488 0
DWIDTH 19 0
BBX 15 21 2 0
BITMAP
0FE0
1C38
300C
6004
4006
4006
4000
6000
3000
1E00
07F0
003C
0006
0006
C002
C002
4002
6006
300C
1C38
0FF0
ENDCHAR
STARTCHAR 0074
ENCODING 116
SWIDTH 360 0
DWIDTH 14 0
BBX 11 27 1 0
BITMAP
0400
0400
0400
0400
0400
0400
0400
FFE0
0400
0400
0400
0400
0400
0400
0400
0400
0400
0400
0400
0400
0400
0400
0400
0400
0400
0600
03E0
ENDCHAR
STARTCHAR 0075
ENCODING 117
SWIDTH 591 0
DWIDTH 23 0
BBX 17 20 4 0
BITMAP
800180
800180
800180
800180
800180
800180
800180
800180
800180
800180
800180
800180
800180
800180
800180
C00380
600780
700D80
3C3980
0FE180
ENDCHAR
STARTCHAR 0076
ENCODING 118
SWIDTH 540 0
DWIDTH 21 0
BBX 17 20 2 0
BITMAP
C00080
C00180
400100
600100
200300
300200
300600
100400
180400
080C00
080800
0C1800
041800
061000
023000
022000
036000
016000
01C000
00C000
ENDCHAR
STARTCHAR 0077
ENCODING 119
SWIDTH 797 0
DWIDTH 31 0
BBX 28 20 2 0
BITMAP
80060030
C0060020
400E0020
400B0060
60090040
20190040
201180C0
301080C0
30308080
1020C180
10204180
18604100
08406100
08402300
0CC02200
0C803200
04801600
07801600
07001C00
03000C00
ENDCHAR
STARTCHAR 0078
ENCODING 120
SWIDTH 514 0
DWIDTH 20 0
BBX 16 20 2 0
BITMAP
C003
6006
200C
3008
1818
0830
0420
0660
02C0
0180
03C0
0240
0660
0C30
0810
1018
300C
6004
4006
C003
ENDCHAR
STARTCHAR 0079
ENCODING 121
SWIDTH 514 0
DWIDTH 20 0
BBX 17 27 2 -7
BITMAP
800180
C00100
400300
600200
200600
200600
300400
100C00
180800
081800
081000
0C3000
042000
062000
026000
024000
03C000
018000
018000
010000
030000
030000
020000
060000
040000
180000
F00000
ENDCHAR
STARTCHAR 007A
ENCODING 122
SWIDTH 488 0
DWIDTH 19 0
BBX 16 20 2 0
BITMAP
7FFF
0002
0004
000C
0018
0030
0020
0040
00C0
0180
0300
0200
0600
0C00
1800
1000
2000
6000
C000
FFFF
ENDCHAR
STARTCHAR 007B
ENCODING 123
SWIDTH 462 0
DWIDTH 18 0
BBX 11 39 5 -7
BITMAP
03E0
0C00
1800
1000
1000
1000
1000
1000
1000
1000
1000
1000
1000
1000
1000
1000
1000
1000
1000
E000
3000
1000
1000
1000
1000
1000
1000
1000
1000
1000
1000
1000
1000
1000
1000
1000
1800
0800
0FE0
ENDCHAR
STARTCHAR 007C
ENCODING 124
SWIDTH 257 0
DWIDTH 10 0
BBX 1 46 5 -9
BITMAP
80
80
80
80
80
80
80
80
80
80
80
80
80
80
80
80
80
80
80
80
80
80
80
80
80
80
80
80
80
80
80
80
80
80
80
80
80
80
80
80
80
80
80
80
80
80
ENDCHAR
STARTCHAR 007D
ENCODING 125
SWIDTH 488 0
DWIDTH 19 0
BBX 11 39 6 -7
BITMAP
F800
0600
0300
0100
0100
0100
0100
0100
0100
0100
0100
0100
0100
0100
0100
0100
0100
0100
0100
00E0
0180
0100
0100
0100
0100
0100
0100
0100
0100
0100
0100
0100
0100
0100
0100
0100
0300
0200
FE00
ENDCHAR
STARTCHAR 007E
ENCODING 126
SWIDTH 514 0
DWIDTH 20 0
BBX 14 4 3 13
BITMAP
1C0C
3F0C
41F8
C060
ENDCHAR
STARTCHAR 00A0
ENCODING 160
SWIDTH 205 0
DWIDTH 8 0
BBX 0 0 0 0
BITMAP
ENDCHAR
STARTCHAR 00A1
ENCODING 161
SWIDTH 180 0
DWIDTH 7 0
BBX 2 31 3 -10
BITMAP
40
C0
C0
00
00
00
40
40
40
40
40
40
40
40
40
C0
C0
C0
C0
C0
C0
C0
C0
C0
C0
C0
C0
C0
C0
C0
C0
ENDCHAR
STARTCHAR 00A2
ENCODING 162
SWIDTH 591 0
DWIDTH 23 0
BBX 19 27 2 -3
BITMAP
004000
004000
004000
03F800
075E00
184300
304180
3040C0
604040
604040
404060
404000
C04000
C04000
C04000
404000
404000
404040
604040
2040C0
304180
184300
0E4E00
03FC00
004000
004000
004000
ENDCHAR
STARTCHAR 00A3
ENCODING 163
SWIDTH 565 0
DWIDTH 22 0
BBX 18 28 2 0
BITMAP
01F000
0FFC00
180600
300300
200100
600180
600180
600180
600080
600000
200000
300000
180000
180000
0C0000
040000
FFFC00
060000
020000
020000
020000
020000
060000
040000
0C0000
180000
600000
FFFFC0
ENDCHAR
STARTCHAR 00A4
ENCODING 164
SWIDTH 540 0
DWIDTH 21 0
BBX 15 14 3 7
BITMAP
47C4
3C78
3018
600C
4004
4006
C006
C006
4006
4004
600C
3018
783C
CFE6
ENDCHAR
STARTCHAR 00A5
ENCODING 165
SWIDTH 591 0
DWIDTH 23 0
BBX 18 27 2 0
BITMAP
C00040
4000C0
600080
200180
300100
100300
180200
080600
0C0C00
040C00
061800
021800
033000
013000
01E000
3FFF00
3FFF00
00C000
00C000
00C000
3FFF00
00C000
00C000
00C000
00C000
00C000
00C000
ENDCHAR
STARTCHAR 00A6
ENCODING 166
SWIDTH 257 0
DWIDTH 10 0
BBX 1 46 5 -9
BITMAP
80
80
80
80
80
80
80
80
80
80
80
80
80
80
80
80
80
80
80
80
00
00
00
00
00
00
00
80
80
80
80
80
80
80
80
80
80
80
80
80
80
80
80
80
80
80
ENDCHAR
STARTCHAR 00A7
ENCODING 167
SWIDTH 540 0
DWIDTH 21 0
BBX 17 28 2 0
BITMAP
03E000
0FF800
380C00
200600
200200
600300
600000
300000
3C0000
0FF000
303C00
600700
400100
C00180
C00180
600180
700180
1E0300
07FC00
001E00
000600
000300
400300
600300
600300
300600
1C1C00
07F800
ENDCHAR
STARTCHAR 00A8
ENCODING 168
SWIDTH 257 0
DWIDTH 10 0
BBX 8 2 1 24
BITMAP
E3
E7
ENDCHAR
STARTCHAR 00A9
ENCODING 169
SWIDTH 797 0
DWIDTH 31 0
BBX 28 28 2 0
BITMAP
003FC000
01FFF800
03001C00
0E000700
18000300
30000180
203FC0C0
60E07040
40801060
C1800820
C3000C20
83000430
82000030
82000030
82000030
82000030
82000030
C3000C20
C1000820
41801860
60C03040
207FE0C0
301F0080
18000180
0C000300
07000E00
01F0F800
007FE000
ENDCHAR
STARTCHAR 00AA
ENCODING 170
SWIDTH 128 0
DWIDTH 5 0
BBX 5 6 0 15
BITMAP
68
D8
88
88
D8
68
ENDCHAR
STARTCHAR 00AB
ENCODING 171
SWIDTH 565 0
DWIDTH 22 0
BBX 18 15 2 5
BITMAP
0380C0
060180
0C0300
080600
100C00
201800
403000
806000
403000
201800
100C00
080600
040300
020180
0180C0
ENDCHAR
STARTCHAR 00AC
ENCODING 172
SWIDTH 642 0
DWIDTH 25 0
BBX 19 10 3 11
BITMAP
FFFFE0
FFFFE0
000020
000020
000020
000020
000020
000020
000020
000020
ENDCHAR
STARTCHAR 00AD
ENCODING 173
SWIDTH 591 0
DWIDTH 23 0
BBX 14 1 5 12
BITMAP
FFFC
ENDCHAR
STARTCHAR 00AE
ENCODING 174
SWIDTH 334 0
DWIDTH 13 0
BBX 9 10 2 17
BITMAP
3E00
4100
9C80
9280
9480
9C80
9480
4180
3700
0800
ENDCHAR
STARTCHAR 00AF
ENCODING 175
SWIDTH 334 0
DWIDTH 13 0
BBX 11 1 1 25
BITMAP
FFE0
ENDCHAR
STARTCHAR 00B0
ENCODING 176
SWIDTH 257 0
DWIDTH 10 0
BBX 7 6 2 27
BITMAP
78
44
82
82
C4
78
ENDCHAR
STARTCHAR 00B1
ENCODING 177
SWIDTH 591 0
DWIDTH 23 0
BBX 14 19 5 0
BITMAP
0300
0300
0300
0300
0300
0300
FFFC
0300
0300
0300
0300
0300
0300
0300
0000
0000
0000
0000
FFFC
ENDCHAR
STARTCHAR 00B2
ENCODING 178
SWIDTH 282 0
DWIDTH 11 0
BBX 10 14 1 15
BITMAP
3F00
6180
4080
C080
0080
0080
0100
0300
0600
0C00
1800
3000
6000
FFC0
ENDCHAR
STARTCHAR 00B3
ENCODING 179
SWIDTH 282 0
DWIDTH 11 0
BBX 10 15 1 14
BITMAP
3F00
4180
4080
0080
0080
0180
1F00
0700
0080
00C0
00C0
8080
4080
3F00
0C00
ENDCHAR
STARTCHAR 00B4
ENCODING 180
SWIDTH 180 0
DWIDTH 7 0
BBX 5 7 1 24
BITMAP
08
18
10
20
60
40
80
ENDCHAR
STARTCHAR 00B5
ENCODING 181
SWIDTH 617 0
DWIDTH 24 0
BBX 20 28 3 -8
BITMAP
C00300
C00300
C00300
C00300
C00300
C00300
C00300
C00300
C00300
C00300
C00300
C00300
C00300
C00300
C00300
C00700
C00F00
E01B00
B83100
9FE0F0
C00000
C00000
C00000
C00000
C00000
C00000
C00000
C00000
ENDCHAR
STARTCHAR 00B6
ENCODING 182
SWIDTH 488 0
DWIDTH 19 0
BBX 15 27 1 0
BITMAP
0FFE
3FE2
7FE2
7FE2
7FE2
FFE2
FFE2
FFE2
7FE2
7FE2
3FE2
1FE2
07E2
0022
0022
0022
0022
0022
0022
0022
0022
0022
0022
0022
0022
0022
0022
ENDCHAR
STARTCHAR 00B7
ENCODING 183
SWIDTH 231 0
DWIDTH 9 0
BBX 3 3 3 13
BITMAP
60
E0
60
ENDCHAR
STARTCHAR 00B8
ENCODING 184
SWIDTH 231 0
DWIDTH 9 0
BBX 7 10 1 -10
BITMAP
60
40
40
FC
06
02
02
06
7C
70
ENDCHAR
STARTCHAR 00B9
ENCODING 185
SWIDTH 231 0
DWIDTH 9 0
BBX 7 14 1 15
BITMAP
30
70
90
10
10
10
10
10
10
10
10
10
10
FE
ENDCHAR
STARTCHAR 00BA
ENCODING 186
SWIDTH 128 0
DWIDTH 5 0
BBX 4 6 1 15
BITMAP
60
90
90
90
90
60
ENDCHAR
STARTCHAR 00BB
ENCODING 187
SWIDTH 565 0
DWIDTH 22 0
BBX 19 15 2 5
BITMAP
C07000
601800
300C00
180600
0C0300
060180
0300C0
018060
0300C0
060180
0C0300
180600
300C00
601800
C07000
ENDCHAR
STARTCHAR 00BC
ENCODING 188
SWIDTH 771 0
DWIDTH 30 0
BBX 27 27 2 0
BITMAP
30000800
70001800
B0001000
30003000
30002000
30004000
3000C000
30008000
30018000
30010000
30020000
30060000
FC040000
000C0180
00080380
00100380
00300580
00200980
00600980
00401180
00802180
01802180
01004180
03007FE0
02000180
04000180
0C000180
ENDCHAR
STARTCHAR 00BD
ENCODING 189
SWIDTH 797 0
DWIDTH 31 0
BBX 27 27 2 0
BITMAP
30000C00
70000800
B0001800
30001000
30003000
30006000
30004000
3000C000
30008000
30018000
30030000
30020000
FC060000
00040780
000C08C0
00181060
00101020
00301020
00200060
00600040
00C00080
00800180
01800300
01000400
03000800
06001000
04003FE0
ENDCHAR
STARTCHAR 00BE
ENCODING 190
SWIDTH 822 0
DWIDTH 32 0
BBX 29 27 2 0
BITMAP
7E000200
43000600
81000400
01000C00
01001800
03001000
1E003000
03002000
01006000
0180C000
01808000
81018000
67010000
3C030060
00060060
000400A0
000C0120
00080320
00180220
00300420
00200C20
00600820
00401020
00C01FF8
01800020
01000020
03000020
ENDCHAR
STARTCHAR 00BF
ENCODING 191
SWIDTH 565 0
DWIDTH 22 0
BBX 17 28 3 -9
BITMAP
01C000
01C000
000000
000000
000000
000000
008000
008000
008000
018000
030000
060000
0C0000
180000
300000
600000
400000
C00000
800000
800000
800180
800180
800100
C00300
600600
300C00
1FF800
03C000
ENDCHAR
STARTCHAR 00C0
ENCODING 192
SWIDTH 668 0
DWIDTH 26 0
BBX 23 36 2 0
BITMAP
010000
018000
00C000
004000
006000
002000
000000
000000
000000
003000
003800
006800
004800
004C00
00C400
008600
008200
018200
010300
030100
020180
020080
060080
0400C0
0C0040
080060
0FFFE0
180020
100030
300010
200018
200008
600008
40000C
C00004
C00006
ENDCHAR
STARTCHAR 00C1
ENCODING 193
SWIDTH 668 0
DWIDTH 26 0
BBX 23 36 2 0
BITMAP
000300
000200
000600
000C00
000800
001000
000000
000000
000000
003000
003800
006800
004800
004C00
00C400
008600
008200
018200
010300
030100
020180
020080
060080
0400C0
0C0040
080060
0FFFE0
180020
100030
300010
200018
200008
600008
40000C
C00004
C00006
ENDCHAR
STARTCHAR 00C2
ENCODING 194
SWIDTH 668 0
DWIDTH 26 0
BBX 23 35 2 0
BITMAP
003800
006C00
00C600
018200
030100
000000
000000
000000
003000
003800
006800
004800
004C00
00C400
008600
008200
018200
010300
030100
020180
020080
060080
0400C0
0C0040
080060
0FFFE0
180020
100030
300010
200018
200008
600008
40000C
C00004
C00006
ENDCHAR
STARTCHAR 00C3
ENCODING 195
SWIDTH 668 0
DWIDTH 26 0
BBX 23 35 2 0
BITMAP
00C100
01E100
011B00
030E00
000000
000000
000000
000000
003000
003800
006800
004800
004C00
00C400
008600
008200
018200
010300
030100
020180
020080
060080
0400C0
0C0040
080060
0FFFE0
180020
100030
300010
200018
200008
600008
40000C
C00004
C00006
ENDCHAR
STARTCHAR 00C4
ENCODING 196
SWIDTH 668 0
DWIDTH 26 0
BBX 23 34 2 0
BITMAP
01C600
01C600
008400
000000
000000
000000
000000
003000
003800
006800
004800
004C00
00C400
008600
008200
018200
010300
030100
020180
020080
060080
0400C0
0C0040
080060
0FFFE0
180020
100030
300010
200018
200008
600008
40000C
C00004
C00006
ENDCHAR
STARTCHAR 00C5
ENCODING 197
SWIDTH 668 0
DWIDTH 26 0
BBX 23 37 2 0
BITMAP
003800
004400
008400
008400
004400
003800
000000
000000
000000
000000
003000
003800
006800
004800
004C00
00C400
008600
008200
018200
010300
030100
020180
020080
060080
0400C0
0C0040
080060
0FFFE0
180020
100030
300010
200018
200008
600008
40000C
C00004
C00006
ENDCHAR
STARTCHAR 00C6
ENCODING 198
SWIDTH 925 0
DWIDTH 36 0
BBX 32 27 2 0
BITMAP
0001FFFF
00038000
00068000
00048000
000C8000
00088000
00188000
00108000
00308000
00608000
00408000
00C08000
0080FFFC
0180FFFC
03008000
02008000
06008000
07FF8000
0C008000
08008000
18008000
30008000
20008000
60008000
40008000
C0008000
8000FFFF
ENDCHAR
STARTCHAR 00C7
ENCODING 199
SWIDTH 720 0
DWIDTH 28 0
BBX 23 37 3 -9
BITMAP
007E00
03FF80
0E00E0
180030
300018
20000C
600004
400006
C00002
C00000
800000
800000
800000
800000
800000
800000
800000
800000
C00000
C00000
400006
600004
20000C
300018
180030
0C0060
0783C0
01FF00
000800
001800
001000
001F80
000080
000080
000080
000180
001F00
ENDCHAR
STARTCHAR 00C8
ENCODING 200
SWIDTH 565 0
DWIDTH 22 0
BBX 15 36 4 0
BITMAP
1000
1800
0C00
0400
0600
0200
0000
0000
0000
FFFE
8000
8000
8000
8000
8000
8000
8000
8000
8000
8000
8000
FFFC
FFFC
8000
8000
8000
8000
8000
8000
8000
8000
8000
8000
8000
8000
FFFE
ENDCHAR
STARTCHAR 00C9
ENCODING 201
SWIDTH 565 0
DWIDTH 22 0
BBX 15 36 4 0
BITMAP
0030
0020
0060
00C0
0080
0180
0000
0000
0000
FFFE
8000
8000
8000
8000
8000
8000
8000
8000
8000
8000
8000
FFFC
FFFC
8000
8000
8000
8000
8000
8000
8000
8000
8000
8000
8000
8000
FFFE
ENDCHAR
STARTCHAR 00CA
ENCODING 202
SWIDTH 565 0
DWIDTH 22 0
BBX 15 35 4 0
BITMAP
0380
06C0
0C60
1830
3010
0000
0000
0000
FFFE
8000
8000
8000
8000
8000
8000
8000
8000
8000
8000
8000
FFFC
FFFC
8000
8000
8000
8000
8000
8000
8000
8000
8000
8000
8000
8000
FFFE
ENDCHAR
STARTCHAR 00CB
ENCODING 203
SWIDTH 565 0
DWIDTH 22 0
BBX 15 34 4 0
BITMAP
1C60
1C60
0840
0000
0000
0000
0000
FFFE
8000
8000
8000
8000
8000
8000
8000
8000
8000
8000
8000
FFFC
FFFC
8000
8000
8000
8000
8000
8000
8000
8000
8000
8000
8000
8000
FFFE
ENDCHAR
STARTCHAR 00CC
ENCODING 204
SWIDTH 205 0
DWIDTH 8 0
BBX 5 36 0 0
BITMAP
80
C0
60
20
30
10
00
00
00
08
08
08
08
08
08
08
08
08
08
08
08
08
08
08
08
08
08
08
08
08
08
08
08
08
08
08
ENDCHAR
STARTCHAR 00CD
ENCODING 205
SWIDTH 205 0
DWIDTH 8 0
BBX 5 36 4 0
BITMAP
18
10
30
60
40
80
00
00
00
80
80
80
80
80
80
80
80
80
80
80
80
80
80
80
80
80
80
80
80
80
80
80
80
80
80
80
ENDCHAR
STARTCHAR 00CE
ENCODING 206
SWIDTH 205 0
DWIDTH 8 0
BBX 10 35 -1 0
BITMAP
0E00
1B00
3180
6080
C040
0000
0000
0000
0400
0400
0400
0400
0400
0400
0400
0400
0400
0400
0400
0400
0400
0400
0400
0400
0400
0400
0400
0400
0400
0400
0400
0400
0400
0400
0400
ENDCHAR
STARTCHAR 00CF
ENCODING 207
SWIDTH 205 0
DWIDTH 8 0
BBX 8 34 0 0
BITMAP
E3
E3
42
00
00
00
00
08
08
08
08
08
08
08
08
08
08
08
08
08
08
08
08
08
08
08
08
08
08
08
08
08
08
08
ENDCHAR
STARTCHAR 00D0
ENCODING 208
SWIDTH 720 0
DWIDTH 28 0
BBX 24 27 2 0
BITMAP
1FFE00
1003C0
100060
100018
100008
100004
100006
100002
100002
100003
100001
100001
100001
FFC001
100001
100001
100001
100003
100002
100002
100006
100004
100008
100010
100060
1007C0
1FFE00
ENDCHAR
STARTCHAR 00D1
ENCODING 209
SWIDTH 720 0
DWIDTH 28 0
BBX 20 35 4 0
BITMAP
010200
03C600
062400
041C00
000000
000000
000000
000000
800010
C00010
E00010
B00010
900010
980010
8C0010
860010
820010
830010
818010
808010
804010
806010
803010
801010
801810
800C10
800610
800210
800310
800190
800090
800050
800070
800030
800010
ENDCHAR
STARTCHAR 00D2
ENCODING 210
SWIDTH 720 0
DWIDTH 28 0
BBX 25 36 2 0
BITMAP
00C00000
00400000
00600000
00200000
00100000
00180000
00000000
00000000
003E0000
01FFC000
07007000
0C001800
18000C00
10000400
30000600
20000200
60000300
40000100
40000100
40000100
C0000100
C0000180
C0000180
C0000180
C0000100
40000100
40000100
60000300
60000300
20000200
30000600
18000C00
0C001800
06003000
03C1E000
00FF8000
ENDCHAR
STARTCHAR 00D3
ENCODING 211
SWIDTH 720 0
DWIDTH 28 0
BBX 25 36 2 0
BITMAP
00018000
00010000
00030000
00020000
00040000
000C0000
00000000
00000000
003E0000
01FFC000
07007000
0C001800
18000C00
10000400
30000600
20000200
60000300
40000100
40000100
40000100
C0000100
C0000180
C0000180
C0000180
C0000100
40000100
40000100
60000300
60000300
20000200
30000600
18000C00
0C001800
06003000
03C1E000
00FF8000
ENDCHAR
STARTCHAR 00D4
ENCODING 212
SWIDTH 720 0
DWIDTH 28 0
BBX 25 35 2 0
BITMAP
001C0000
00360000
00630000
00C18000
0180C000
00000000
00000000
003E0000
01FFC000
07007000
0C001800
18000C00
10000400
30000600
20000200
60000300
40000100
40000100
40000100
C0000100
C0000180
C0000180
C0000180
C0000100
40000100
40000100
60000300
60000300
20000200
30000600
18000C00
0C001800
06003000
03C1E000
00FF8000
ENDCHAR
STARTCHAR 00D5
ENCODING 213
SWIDTH 720 0
DWIDTH 28 0
BBX 25 35 2 0
BITMAP
00608000
00F88000
008D8000
00870000
00000000
00000000
00000000
003E0000
01FFC000
07007000
0C001800
18000C00
10000400
30000600
20000200
60000300
40000100
40000100
40000100
C0000100
C0000180
C0000180
C0000180
C0000100
40000100
40000100
60000300
60000300
20000200
30000600
18000C00
0C001800
06003000
03C1E000
00FF8000
ENDCHAR
STARTCHAR 00D6
ENCODING 214
SWIDTH 720 0
DWIDTH 28 0
BBX 25 34 2 0
BITMAP
00630000
00E30000
00410000
00000000
00000000
00000000
003E0000
01FFC000
07007000
0C001800
18000C00
10000400
30000600
20000200
60000300
40000100
40000100
40000100
C0000100
C0000180
C0000180
C0000180
C0000100
40000100
40000100
60000300
60000300
20000200
30000600
18000C00
0C001800
06003000
03C1E000
00FF8000
ENDCHAR
STARTCHAR 00D7
ENCODING 215
SWIDTH 514 0
DWIDTH 20 0
BBX 11 11 5 7
BITMAP
8000
C060
60C0
3180
1B00
0E00
0E00
1B00
3180
60C0
C060
ENDCHAR
STARTCHAR 00D8
ENCODING 216
SWIDTH 720 0
DWIDTH 28 0
BBX 25 31 2 -2
BITMAP
00000600
003E0400
01FFC800
07007800
0C001800
18003C00
30006400
30004600
6000C200
60008300
40010100
40030100
40020100
C0040100
C00C0100
C0080180
C0180100
C0300100
40200100
40600100
40C00300
60800200
21800200
31000600
1A000C00
0E001800
06003000
0BC1E000
18FF8000
10000000
30000000
ENDCHAR
STARTCHAR 00D9
ENCODING 217
SWIDTH 668 0
DWIDTH 26 0
BBX 21 36 3 0
BITMAP
020000
030000
018000
008000
00C000
004000
000000
000000
000000
800018
800018
800018
800018
800018
800018
800018
800018
800018
800018
800018
800018
800018
800018
800018
800018
800018
800010
C00010
C00010
400030
400020
600020
300040
1800C0
0E0380
03FE00
ENDCHAR
STARTCHAR 00DA
ENCODING 218
SWIDTH 668 0
DWIDTH 26 0
BBX 21 36 3 0
BITMAP
000600
000400
000C00
001800
001000
003000
000000
000000
000000
800018
800018
800018
800018
800018
800018
800018
800018
800018
800018
800018
800018
800018
800018
800018
800018
800018
800010
C00010
C00010
400030
400020
600020
300040
1800C0
0E0380
03FE00
ENDCHAR
STARTCHAR 00DB
ENCODING 219
SWIDTH 668 0
DWIDTH 26 0
BBX 21 35 3 0
BITMAP
007000
00D800
018C00
030600
060200
000000
000000
000000
800018
800018
800018
800018
800018
800018
800018
800018
800018
800018
800018
800018
800018
800018
800018
800018
800018
800010
C00010
C00010
400030
400020
600020
300040
1800C0
0E0380
03FE00
ENDCHAR
STARTCHAR 00DC
ENCODING 220
SWIDTH 668 0
DWIDTH 26 0
BBX 21 34 3 0
BITMAP
038C00
038C00
010800
000000
000000
000000
000000
800018
800018
800018
800018
800018
800018
800018
800018
800018
800018
800018
800018
800018
800018
800018
800018
800018
800010
C00010
C00010
400030
400020
600020
300040
1800C0
0E0380
03FE00
ENDCHAR
STARTCHAR 00DD
ENCODING 221
SWIDTH 565 0
DWIDTH 22 0
BBX 18 36 2 0
BITMAP
000C00
001800
001000
003000
002000
004000
000000
000000
000000
C00040
4000C0
600080
200180
300100
100300
180200
080600
0C0C00
040C00
061800
021800
033000
013000
01E000
00E000
00C000
00C000
00C000
00C000
00C000
00C000
00C000
00C000
00C000
00C000
00C000
ENDCHAR
STARTCHAR 00DE
ENCODING 222
SWIDTH 565 0
DWIDTH 22 0
BBX 17 27 4 0
BITMAP
800000
800000
800000
800000
800000
FFF000
803C00
800600
800300
800100
800180
800080
800080
800080
800080
800080
800180
800100
800300
800600
807C00
FFE000
800000
800000
800000
800000
800000
ENDCHAR
STARTCHAR 00DF
ENCODING 223
SWIDTH 540 0
DWIDTH 21 0
BBX 15 28 4 0
BITMAP
0780
3FE0
6038
4008
C00C
8004
8004
8004
8004
800C
8008
8018
8070
9FC0
81E0
8018
800C
8004
8006
8006
8006
8006
8006
8004
800C
8018
8030
8FE0
ENDCHAR
STARTCHAR 00E0
ENCODING 224
SWIDTH 617 0
DWIDTH 24 0
BBX 19 29 2 0
BITMAP
060000
030000
010000
018000
008000
004000
000000
000000
03F800
0F1C60
180260
300160
2000E0
6000E0
400060
400060
C00060
C00060
C00060
C00060
C00060
400060
400060
6000E0
2000E0
300160
180360
0E0C60
03F860
ENDCHAR
STARTCHAR 00E1
ENCODING 225
SWIDTH 617 0
DWIDTH 24 0
BBX 19 29 2 0
BITMAP
000400
000C00
001800
001000
003000
002000
000000
000000
03F800
0F1C60
180260
300160
2000E0
6000E0
400060
400060
C00060
C00060
C00060
C00060
C00060
400060
400060
6000E0
2000E0
300160
180360
0E0C60
03F860
ENDCHAR
STARTCHAR 00E2
ENCODING 226
SWIDTH 617 0
DWIDTH 24 0
BBX 19 28 2 0
BITMAP
00E000
019000
031800
020C00
040600
000000
000000
03F800
0F1C60
180260
300160
2000E0
6000E0
400060
400060
C00060
C00060
C00060
C00060
C00060
400060
400060
6000E0
2000E0
300160
180360
0E0C60
03F860
ENDCHAR
STARTCHAR 00E3
ENCODING 227
SWIDTH 617 0
DWIDTH 24 0
BBX 19 28 2 0
BITMAP
038600
06C600
043C00
041800
000000
000000
000000
03F800
0F1C60
180260
300160
2000E0
6000E0
400060
400060
C00060
C00060
C00060
C00060
C00060
400060
400060
6000E0
2000E0
300160
180360
0E0C60
03F860
ENDCHAR
STARTCHAR 00E4
ENCODING 228
SWIDTH 617 0
DWIDTH 24 0
BBX 19 27 2 0
BITMAP
031C00
031C00
000000
000000
000000
000000
03F800
0F1C60
180260
300160
2000E0
6000E0
400060
400060
C00060
C00060
C00060
C00060
C00060
400060
400060
6000E0
2000E0
300160
180360
0E0C60
03F860
ENDCHAR
STARTCHAR 00E5
ENCODING 229
SWIDTH 617 0
DWIDTH 24 0
BBX 19 30 2 0
BITMAP
00F000
011000
010800
010800
019000
006000
000000
000000
000000
03F800
0F1C60
180260
300160
2000E0
6000E0
400060
400060
C00060
C00060
C00060
C00060
C00060
400060
400060
6000E0
2000E0
300160
180360
0E0C60
03F860
ENDCHAR
STARTCHAR 00E6
ENCODING 230
SWIDTH 951 0
DWIDTH 37 0
BBX 33 21 2 0
BITMAP
03E007F000
0F781E3C00
3004300600
2002600300
6003400100
4001C00180
0001800180
0001800080
0001800080
0001800080
0FFFFFFF80
3801800000
6001800000
4001800000
C001800000
C001C00180
C002400100
4006600300
600C300600
3C781C1C00
0FE007F000
ENDCHAR
STARTCHAR 00E7
ENCODING 231
SWIDTH 565 0
DWIDTH 22 0
BBX 19 31 2 -10
BITMAP
03F800
071E00
1C0300
100180
3000C0
600040
600040
400060
400000
C00000
C00000
C00000
400000
400000
400040
600040
2000C0
300180
180300
0E0E00
03FC00
006000
004000
004000
00FC00
000600
000200
000200
000400
007C00
007000
ENDCHAR
STARTCHAR 00E8
ENCODING 232
SWIDTH 565 0
DWIDTH 22 0
BBX 18 29 2 0
BITMAP
060000
030000
010000
018000
008000
004000
000000
000000
03F800
070E00
180300
100180
200080
6000C0
600040
400040
400040
C00040
FFFFC0
C00000
400000
400000
400000
600040
2000C0
300180
180300
0E0E00
03F800
ENDCHAR
STARTCHAR 00E9
ENCODING 233
SWIDTH 565 0
DWIDTH 22 0
BBX 18 29 2 0
BITMAP
000400
000C00
001800
001000
002000
002000
000000
000000
03F800
070E00
180300
100180
200080
6000C0
600040
400040
400040
C00040
FFFFC0
C00000
400000
400000
400000
600040
2000C0
300180
180300
0E0E00
03F800
ENDCHAR
STARTCHAR 00EA
ENCODING 234
SWIDTH 565 0
DWIDTH 22 0
BBX 18 28 2 0
BITMAP
00E000
01B000
031800
060C00
040600
000000
000000
03F800
070E00
180300
100180
200080
6000C0
600040
400040
400040
C00040
FFFFC0
C00000
400000
400000
400000
600040
2000C0
300180
180300
0E0E00
03F800
ENDCHAR
STARTCHAR 00EB
ENCODING 235
SWIDTH 565 0
DWIDTH 22 0
BBX 18 27 2 0
BITMAP
031C00
031C00
000000
000000
000000
000000
03F800
070E00
180300
100180
200080
6000C0
600040
400040
400040
C00040
FFFFC0
C00000
400000
400000
400000
600040
2000C0
300180
180300
0E0E00
03F800
ENDCHAR
STARTCHAR 00EC
ENCODING 236
SWIDTH 205 0
DWIDTH 8 0
BBX 5 29 0 0
BITMAP
80
C0
60
20
30
10
00
00
00
08
08
08
08
08
08
08
08
08
08
08
08
08
08
08
08
08
08
08
08
ENDCHAR
STARTCHAR 00ED
ENCODING 237
SWIDTH 205 0
DWIDTH 8 0
BBX 5 29 4 0
BITMAP
18
30
20
60
40
80
00
00
00
80
80
80
80
80
80
80
80
80
80
80
80
80
80
80
80
80
80
80
80
ENDCHAR
STARTCHAR 00EE
ENCODING 238
SWIDTH 205 0
DWIDTH 8 0
BBX 10 28 -1 0
BITMAP
0E00
1300
3180
60C0
C040
0000
0000
0000
0400
0400
0400
0400
0400
0400
0400
0400
0400
0400
0400
0400
0400
0400
0400
0400
0400
0400
0400
0400
ENDCHAR
STARTCHAR 00EF
ENCODING 239
SWIDTH 205 0
DWIDTH 8 0
BBX 8 27 0 0
BITMAP
E3
E7
00
00
00
00
00
08
08
08
08
08
08
08
08
08
08
08
08
08
08
08
08
08
08
08
08
ENDCHAR
STARTCHAR 00F0
ENCODING 240
SWIDTH 617 0
DWIDTH 24 0
BBX 19 30 2 0
BITMAP
008040
00F1C0
000F00
000E00
003300
006180
000080
0000C0
000040
03F840
0F1E40
180360
300160
2000E0
6000E0
400060
400060
C00060
C00060
C00060
C00060
C00060
400040
400040
6000C0
200080
300180
180300
0E0E00
03F800
ENDCHAR
STARTCHAR 00F1
ENCODING 241
SWIDTH 617 0
DWIDTH 24 0
BBX 17 28 4 0
BITMAP
060800
091800
18F000
102000
000000
000000
000000
03F000
8F7C00
900E00
A00300
C00100
C00100
800180
800080
800080
800080
800080
800080
800080
800080
800080
800080
800080
800080
800080
800080
800080
ENDCHAR
STARTCHAR 00F2
ENCODING 242
SWIDTH 591 0
DWIDTH 23 0
BBX 19 29 2 0
BITMAP
060000
030000
010000
018000
008000
004000
000000
000000
01F800
071E00
1C0300
100180
3000C0
600040
600040
400060
400060
C00020
C00020
C00020
400020
400060
400040
600040
2000C0
300180
180300
0E0E00
03F800
ENDCHAR
STARTCHAR 00F3
ENCODING 243
SWIDTH 591 0
DWIDTH 23 0
BBX 19 29 2 0
BITMAP
000400
000C00
001800
001000
002000
002000
000000
000000
01F800
071E00
1C0300
100180
3000C0
600040
600040
400060
400060
C00020
C00020
C00020
400020
400060
400040
600040
2000C0
300180
180300
0E0E00
03F800
ENDCHAR
STARTCHAR 00F4
ENCODING 244
SWIDTH 591 0
DWIDTH 23 0
BBX 19 28 2 0
BITMAP
00E000
01B000
031800
060C00
040600
000000
000000
01F800
071E00
1C0300
100180
3000C0
600040
600040
400060
400060
C00020
C00020
C00020
400020
400060
400040
600040
2000C0
300180
180300
0E0E00
03F800
ENDCHAR
STARTCHAR 00F5
ENCODING 245
SWIDTH 591 0
DWIDTH 23 0
BBX 19 28 2 0
BITMAP
038600
06C400
043C00
041800
000000
000000
000000
01F800
071E00
1C0300
100180
3000C0
600040
600040
400060
400060
C00020
C00020
C00020
400020
400060
400040
600040
2000C0
300180
180300
0E0E00
03F800
ENDCHAR
STARTCHAR 00F6
ENCODING 246
SWIDTH 591 0
DWIDTH 23 0
BBX 19 27 2 0
BITMAP
031C00
031C00
000000
000000
000000
000000
01F800
071E00
1C0300
100180
3000C0
600040
600040
400060
400060
C00020
C00020
C00020
400020
400060
400040
600040
2000C0
300180
180300
0E0E00
03F800
ENDCHAR
STARTCHAR 00F7
ENCODING 247
SWIDTH 591 0
DWIDTH 23 0
BBX 14 15 3 5
BITMAP
0300
0380
0300
0000
0000
0000
0000
FFFC
0000
0000
0000
0000
0100
0380
0300
ENDCHAR
STARTCHAR 00F8
ENCODING 248
SWIDTH 591 0
DWIDTH 23 0
BBX 19 25 2 -2
BITMAP
000180
000100
03FB00
070E00
1C0700
100580
300CC0
600840
401840
401060
403060
C02020
C04020
C0C020
408060
418060
410040
630040
2200C0
160180
1C0300
0F0E00
0BF800
100000
300000
ENDCHAR
STARTCHAR 00F9
ENCODING 249
SWIDTH 591 0
DWIDTH 23 0
BBX 17 29 4 0
BITMAP
180000
180000
0C0000
040000
020000
020000
000000
000000
000000
800180
800180
800180
800180
800180
800180
800180
800180
800180
800180
800180
800180
800180
800180
800180
C00380
600780
700D80
3C3980
0FE180
ENDCHAR
STARTCHAR 00FA
ENCODING 250
SWIDTH 591 0
DWIDTH 23 0
BBX 17 29 4 0
BITMAP
003000
006000
004000
00C000
008000
010000
000000
000000
000000
800180
800180
800180
800180
800180
800180
800180
800180
800180
800180
800180
800180
800180
800180
800180
C00380
600780
700D80
3C3980
0FE180
ENDCHAR
STARTCHAR 00FB
ENCODING 251
SWIDTH 591 0
DWIDTH 23 0
BBX 17 28 4 0
BITMAP
038000
06C000
0C6000
183000
301800
000000
000000
000000
800180
800180
800180
800180
800180
800180
800180
800180
800180
800180
800180
800180
800180
800180
800180
C00380
600780
700D80
3C3980
0FE180
ENDCHAR
STARTCHAR 00FC
ENCODING 252
SWIDTH 591 0
DWIDTH 23 0
BBX 17 27 4 0
BITMAP
1C6000
1C6000
000000
000000
000000
000000
000000
800180
800180
800180
800180
800180
800180
800180
800180
800180
800180
800180
800180
800180
800180
800180
C00380
600780
700D80
3C3980
0FE180
ENDCHAR
STARTCHAR 00FD
ENCODING 253
SWIDTH 514 0
DWIDTH 20 0
BBX 17 36 2 -7
BITMAP
001800
003000
002000
006000
00C000
008000
000000
000000
000000
800180
C00100
400300
600200
200600
200600
300400
100C00
180800
081800
081000
0C3000
042000
062000
026000
024000
03C000
018000
018000
010000
030000
030000
020000
060000
040000
180000
F00000
ENDCHAR
STARTCHAR 00FE
ENCODING 254
SWIDTH 617 0
DWIDTH 24 0
BBX 18 38 4 -9
BITMAP
800000
800000
800000
800000
800000
800000
800000
800000
83F000
8E3C00
980600
A00300
E00180
C00080
C00080
8000C0
8000C0
800040
800040
800040
8000C0
8000C0
C00080
C00080
E00180
A00300
900600
8E1C00
87F800
800000
800000
800000
800000
800000
800000
800000
800000
800000
ENDCHAR
STARTCHAR 00FF
ENCODING 255
SWIDTH 514 0
DWIDTH 20 0
BBX 17 34 2 -7
BITMAP
0C7000
0E7000
002000
000000
000000
000000
000000
800180
C00100
400300
600200
200600
200600
300400
100C00
180800
081800
081000
0C3000
042000
062000
026000
024000
03C000
018000
018000
010000
030000
030000
020000
060000
040000
180000
F00000
ENDCHAR
STARTCHAR 0100
ENCODING 256
SWIDTH 668 0
DWIDTH 26 0
BBX 23 33 2 0
BITMAP
03FF80
000000
000000
000000
000000
000000
003000
003800
006800
004800
004C00
00C400
008600
008200
018200
010300
030100
020180
020080
060080
0400C0
0C0040
080060
0FFFE0
180020
100030
300010
200018
200008
600008
40000C
C00004
C00006
ENDCHAR
STARTCHAR 0101
ENCODING 257
SWIDTH 617 0
DWIDTH 24 0
BBX 19 26 2 0
BITMAP
0FFE00
000000
000000
000000
000000
03F800
0F1C60
180260
300160
2000E0
6000E0
400060
400060
C00060
C00060
C00060
C00060
C00060
400060
400060
6000E0
2000E0
300160
180360
0E0C60
03F860
ENDCHAR
STARTCHAR 0102
ENCODING 258
SWIDTH 668 0
DWIDTH 26 0
BBX 23 34 2 0
BITMAP
020180
030300
00FE00
000000
000000
000000
000000
003000
003800
006800
004800
004C00
00C400
008600
008200
018200
010300
030100
020180
020080
060080
0400C0
0C0040
080060
0FFFE0
180020
100030
300010
200018
200008
600008
40000C
C00004
C00006
ENDCHAR
STARTCHAR 0103
ENCODING 259
SWIDTH 617 0
DWIDTH 24 0
BBX 19 27 2 0
BITMAP
0C0200
060C00
01F800
000000
000000
000000
03F800
0F1C60
180260
300160
2000E0
6000E0
400060
400060
C00060
C00060
C00060
C00060
C00060
400060
400060
6000E0
2000E0
300160
180360
0E0C60
03F860
ENDCHAR
STARTCHAR 0104
ENCODING 260
SWIDTH 668 0
DWIDTH 26 0
BBX 24 33 2 -6
BITMAP
003000
003800
006800
004800
004C00
00C400
008600
008200
018200
010300
030100
020180
020080
060080
0400C0
0C0040
080060
0FFFE0
180020
100030
300010
200018
200008
600008
40000C
C00004
C00006
00000C
000008
000018
000018
00000C
000007
ENDCHAR
STARTCHAR 0105
ENCODING 261
SWIDTH 617 0
DWIDTH 24 0
BBX 20 27 2 -6
BITMAP
03F800
0F1C60
180260
300160
2000E0
6000E0
400060
400060
C00060
C00060
C00060
C00060
C00060
400060
400060
6000E0
2000E0
300160
180360
0E0C60
03F860
0000C0
000080
000100
000180
0000C0
000070
ENDCHAR
STARTCHAR 0106
ENCODING 262
SWIDTH 720 0
DWIDTH 28 0
BBX 23 36 3 0
BITMAP
000300
000600
000400
000C00
000800
001000
000000
000000
007E00
03FF80
0E00E0
180030
300018
20000C
600004
400006
C00002
C00000
800000
800000
800000
800000
800000
800000
800000
800000
C00000
C00000
400006
600004
20000C
300018
180030
0C0060
0783C0
01FF00
ENDCHAR
STARTCHAR 0107
ENCODING 263
SWIDTH 565 0
DWIDTH 22 0
BBX 19 29 2 0
BITMAP
000600
000C00
001800
001000
003000
002000
000000
000000
03F800
071E00
1C0300
100180
3000C0
600040
600040
400060
400000
C00000
C00000
C00000
400000
400000
400040
600040
2000C0
300180
180300
0E0E00
03FC00
ENDCHAR
STARTCHAR 010A
ENCODING 266
SWIDTH 720 0
DWIDTH 28 0
BBX 23 34 3 0
BITMAP
003000
003000
001000
000000
000000
000000
007E00
03FF80
0E00E0
180030
300018
20000C
600004
400006
C00002
C00000
800000
800000
800000
800000
800000
800000
800000
800000
C00000
C00000
400006
600004
20000C
300018
180030
0C0060
0783C0
01FF00
ENDCHAR
STARTCHAR 010B
ENCODING 267
SWIDTH 565 0
DWIDTH 22 0
BBX 19 27 2 0
BITMAP
006000
006000
000000
000000
000000
000000
03F800
071E00
1C0300
100180
3000C0
600040
600040
400060
400000
C00000
C00000
C00000
400000
400000
400040
600040
2000C0
300180
180300
0E0E00
03FC00
ENDCHAR
STARTCHAR 010C
ENCODING 268
SWIDTH 720 0
DWIDTH 28 0
BBX 23 35 3 0
BITMAP
030300
018600
00CC00
006800
003000
000000
000000
007E00
03FF80
0E00E0
180030
300018
20000C
600004
400006
C00002
C00000
800000
800000
800000
800000
800000
800000
800000
800000
C00000
C00000
400006
600004
20000C
300018
180030
0C0060
0783C0
01FF00
ENDCHAR
STARTCHAR 010D
ENCODING 269
SWIDTH 565 0
DWIDTH 22 0
BBX 19 28 2 0
BITMAP
060600
030C00
019800
00F000
006000
000000
000000
03F800
071E00
1C0300
100180
3000C0
600040
600040
400060
400000
C00000
C00000
C00000
400000
400000
400040
600040
2000C0
300180
180300
0E0E00
03FC00
ENDCHAR
STARTCHAR 010E
ENCODING 270
SWIDTH 668 0
DWIDTH 26 0
BBX 21 35 4 0
BITMAP
0C0C00
061800
033000
01E000
00C000
000000
000000
000000
FFF800
800E00
800380
8000C0
800060
800020
800030
800010
800010
800018
800018
800008
800008
800008
800008
800008
800018
800018
800010
800010
800030
800060
800040
8001C0
800380
803E00
FFF800
ENDCHAR
STARTCHAR 010F
ENCODING 271
SWIDTH 668 0
DWIDTH 26 0
BBX 24 29 2 0
BITMAP
000067
000067
000063
000061
000061
000063
000066
000064
03F860
0F1C60
180260
300160
2000E0
6000E0
400060
400060
C00060
C00060
C00060
C00060
C00060
400060
400060
6000E0
2000E0
300160
180360
0E0C60
03F860
ENDCHAR
STARTCHAR 0110
ENCODING 272
SWIDTH 720 0
DWIDTH 28 0
BBX 24 27 2 0
BITMAP
1FFE00
1003C0
100060
100018
100008
100004
100006
100002
100002
100003
100001
100001
100001
FFC001
100001
100001
100001
100003
100002
100002
100006
100004
100008
100010
100060
1007C0
1FFE00
ENDCHAR
STARTCHAR 0111
ENCODING 273
SWIDTH 617 0
DWIDTH 24 0
BBX 22 29 2 0
BITMAP
000060
000060
000060
003FFC
003FFC
000060
000060
000060
03F860
0F1C60
180260
300160
2000E0
6000E0
400060
400060
C00060
C00060
C00060
C00060
C00060
400060
400060
6000E0
2000E0
300160
180360
0E0C60
03F860
ENDCHAR
STARTCHAR 0112
ENCODING 274
SWIDTH 565 0
DWIDTH 22 0
BBX 15 33 4 0
BITMAP
3FF8
0000
0000
0000
0000
0000
FFFE
8000
8000
8000
8000
8000
8000
8000
8000
8000
8000
8000
FFFC
FFFC
8000
8000
8000
8000
8000
8000
8000
8000
8000
8000
8000
8000
FFFE
ENDCHAR
STARTCHAR 0113
ENCODING 275
SWIDTH 565 0
DWIDTH 22 0
BBX 18 26 2 0
BITMAP
0FFE00
000000
000000
000000
000000
03F800
070E00
180300
100180
200080
6000C0
600040
400040
400040
C00040
FFFFC0
C00000
400000
400000
400000
600040
2000C0
300180
180300
0E0E00
03F800
ENDCHAR
STARTCHAR 0116
ENCODING 278
SWIDTH 565 0
DWIDTH 22 0
BBX 15 34 4 0
BITMAP
0300
0380
0100
0000
0000
0000
0000
FFFE
8000
8000
8000
8000
8000
8000
8000
8000
8000
8000
8000
FFFC
FFFC
8000
8000
8000
8000
8000
8000
8000
8000
8000
8000
8000
8000
FFFE
ENDCHAR
STARTCHAR 0117
ENCODING 279
SWIDTH 565 0
DWIDTH 22 0
BBX 18 27 2 0
BITMAP
00E000
00E000
004000
000000
000000
000000
03F800
070E00
180300
100180
200080
6000C0
600040
400040
400040
C00040
FFFFC0
C00000
400000
400000
400000
600040
2000C0
300180
180300
0E0E00
03F800
ENDCHAR
STARTCHAR 0118
ENCODING 280
SWIDTH 565 0
DWIDTH 22 0
BBX 17 33 4 -6
BITMAP
FFFE00
800000
800000
800000
800000
800000
800000
800000
800000
800000
800000
800000
FFFC00
FFFC00
800000
800000
800000
800000
800000
800000
800000
800000
800000
800000
800000
800000
FFFE00
000400
000800
000800
000800
000C00
000780
ENDCHAR
STARTCHAR 0119
ENCODING 281
SWIDTH 565 0
DWIDTH 22 0
BBX 18 27 2 -6
BITMAP
03F800
070E00
180300
100180
200080
6000C0
600040
400040
400040
C00040
FFFFC0
C00000
400000
400000
400000
600040
2000C0
300180
180300
0E0E00
03F800
006000
008000
008000
008000
00C000
007800
ENDCHAR
STARTCHAR 011A
ENCODING 282
SWIDTH 565 0
DWIDTH 22 0
BBX 15 35 4 0
BITMAP
3010
1820
0C60
06C0
0380
0000
0000
0000
FFFE
8000
8000
8000
8000
8000
8000
8000
8000
8000
8000
8000
FFFC
FFFC
8000
8000
8000
8000
8000
8000
8000
8000
8000
8000
8000
8000
FFFE
ENDCHAR
STARTCHAR 011B
ENCODING 283
SWIDTH 565 0
DWIDTH 22 0
BBX 18 28 2 0
BITMAP
060600
030C00
019800
00B000
006000
000000
000000
03F800
070E00
180300
100180
200080
6000C0
600040
400040
400040
C00040
FFFFC0
C00000
400000
400000
400000
600040
2000C0
300180
180300
0E0E00
03F800
ENDCHAR
STARTCHAR 011E
ENCODING 286
SWIDTH 694 0
DWIDTH 27 0
BBX 23 34 2 0
BITMAP
0100C0
018180
007F00
000000
000000
000000
007E00
01FFC0
070060
0C0010
180008
10000C
300004
200006
600000
400000
400000
400000
C00000
C00000
C00000
C007FE
400002
400002
400002
600002
600006
200006
300006
18000A
0C0012
060032
03C1C2
00FF82
ENDCHAR
STARTCHAR 011F
ENCODING 287
SWIDTH 617 0
DWIDTH 24 0
BBX 19 35 2 -8
BITMAP
0C0200
060C00
01F800
000000
000000
000000
03F800
0F1E20
180320
300120
2000A0
6000E0
400060
400060
C00060
C00060
C00060
C00060
400060
400060
6000E0
2000E0
3001A0
180320
0E0620
07FC20
000060
000060
000060
000040
0000C0
000080
000300
01FE00
007000
ENDCHAR
STARTCHAR 0120
ENCODING 288
SWIDTH 694 0
DWIDTH 27 0
BBX 23 34 2 0
BITMAP
001800
001C00
000800
000000
000000
000000
007E00
01FFC0
070060
0C0010
180008
10000C
300004
200006
600000
400000
400000
400000
C00000
C00000
C00000
C007FE
400002
400002
400002
600002
600006
200006
300006
18000A
0C0012
060032
03C1C2
00FF82
ENDCHAR
STARTCHAR 0121
ENCODING 289
SWIDTH 617 0
DWIDTH 24 0
BBX 19 35 2 -8
BITMAP
006000
006000
000000
000000
000000
000000
03F800
0F1E20
180320
300120
2000A0
6000E0
400060
400060
C00060
C00060
C00060
C00060
400060
400060
6000E0
2000E0
3001A0
180320
0E0620
07FC20
000060
000060
000060
000040
0000C0
000080
000300
01FE00
007000
ENDCHAR
STARTCHAR 0126
ENCODING 294
SWIDTH 668 0
DWIDTH 26 0
BBX 25 27 1 0
BITMAP
10000400
10000400
10000400
10000400
10000400
FFFFFF80
FFFFFF80
10000400
10000400
10000400
10000400
10000400
10000400
1FFFFC00
10000400
10000400
10000400
10000400
10000400
10000400
10000400
10000400
10000400
10000400
10000400
10000400
10000400
ENDCHAR
STARTCHAR 0127
ENCODING 295
SWIDTH 591 0
DWIDTH 23 0
BBX 21 29 0 0
BITMAP
080000
080000
080000
FFF000
FFF000
080000
080000
080000
083F80
08FBE0
098060
0B0030
0E0010
0C0018
0C0018
080008
080008
080008
080008
080008
080008
080008
080008
080008
080008
080008
080008
080008
080008
ENDCHAR
STARTCHAR 0128
ENCODING 296
SWIDTH 205 0
DWIDTH 8 0
BBX 10 35 -1 0
BITMAP
3040
7840
46C0
C380
0000
0000
0000
0000
0400
0400
0400
0400
0400
0400
0400
0400
0400
0400
0400
0400
0400
0400
0400
0400
0400
0400
0400
0400
0400
0400
0400
0400
0400
0400
0400
ENDCHAR
STARTCHAR 0129
ENCODING 297
SWIDTH 205 0
DWIDTH 8 0
BBX 10 28 -1 0
BITMAP
3040
4C40
C780
C100
0000
0000
0000
0000
0400
0400
0400
0400
0400
0400
0400
0400
0400
0400
0400
0400
0400
0400
0400
0400
0400
0400
0400
0400
ENDCHAR
STARTCHAR 012A
ENCODING 298
SWIDTH 205 0
DWIDTH 8 0
BBX 11 33 -1 0
BITMAP
FFE0
0000
0000
0000
0000
0000
0400
0400
0400
0400
0400
0400
0400
0400
0400
0400
0400
0400
0400
0400
0400
0400
0400
0400
0400
0400
0400
0400
0400
0400
0400
0400
0400
ENDCHAR
STARTCHAR 012B
ENCODING 299
SWIDTH 205 0
DWIDTH 8 0
BBX 11 26 -1 0
BITMAP
FFE0
0000
0000
0000
0000
0000
0400
0400
0400
0400
0400
0400
0400
0400
0400
0400
0400
0400
0400
0400
0400
0400
0400
0400
0400
0400
ENDCHAR
STARTCHAR 012E
ENCODING 302
SWIDTH 205 0
DWIDTH 8 0
BBX 5 33 1 -6
BITMAP
10
10
10
10
10
10
10
10
10
10
10
10
10
10
10
10
10
10
10
10
10
10
10
10
10
10
10
60
40
C0
C0
60
38
ENDCHAR
STARTCHAR 012F
ENCODING 303
SWIDTH 205 0
DWIDTH 8 0
BBX 5 33 1 -6
BITMAP
30
38
00
00
00
00
00
10
10
10
10
10
10
10
10
10
10
10
10
10
10
10
10
10
10
10
10
60
40
C0
C0
60
38
ENDCHAR
STARTCHAR 0130
ENCODING 304
SWIDTH 205 0
DWIDTH 8 0
BBX 3 34 3 0
BITMAP
C0
E0
40
00
00
00
00
40
40
40
40
40
40
40
40
40
40
40
40
40
40
40
40
40
40
40
40
40
40
40
40
40
40
40
ENDCHAR
STARTCHAR 0131
ENCODING 305
SWIDTH 205 0
DWIDTH 8 0
BBX 1 20 4 0
BITMAP
80
80
80
80
80
80
80
80
80
80
80
80
80
80
80
80
80
80
80
80
ENDCHAR
STARTCHAR 0139
ENCODING 313
SWIDTH 514 0
DWIDTH 20 0
BBX 15 36 4 0
BITMAP
1800
1000
3000
6000
4000
8000
0000
0000
0000
8000
8000
8000
8000
8000
8000
8000
8000
8000
8000
8000
8000
8000
8000
8000
8000
8000
8000
8000
8000
8000
8000
8000
8000
8000
8000
FFFE
ENDCHAR
STARTCHAR 013A
ENCODING 314
SWIDTH 282 0
DWIDTH 11 0
BBX 5 38 4 0
BITMAP
18
10
30
60
40
80
00
00
00
80
80
80
80
80
80
80
80
80
80
80
80
80
80
80
80
80
80
80
80
80
80
80
80
80
80
80
C0
78
ENDCHAR
STARTCHAR 013D
ENCODING 317
SWIDTH 514 0
DWIDTH 20 0
BBX 20 35 -1 0
BITMAP
C04000
608000
310000
1B0000
0E0000
000000
000000
000000
040000
040000
040000
040000
040000
040000
040000
040000
040000
040000
040000
040000
040000
040000
040000
040000
040000
040000
040000
040000
040000
040000
040000
040000
040000
040000
07FFF0
ENDCHAR
STARTCHAR 013E
ENCODING 318
SWIDTH 282 0
DWIDTH 11 0
BBX 6 29 4 0
BITMAP
9C
9C
8C
84
84
84
88
90
80
80
80
80
80
80
80
80
80
80
80
80
80
80
80
80
80
80
80
C0
78
ENDCHAR
STARTCHAR 0143
ENCODING 323
SWIDTH 720 0
DWIDTH 28 0
BBX 20 36 4 0
BITMAP
000600
000C00
000800
001800
001000
002000
000000
000000
000000
800010
C00010
E00010
B00010
900010
980010
8C0010
860010
820010
830010
818010
808010
804010
806010
803010
801010
801810
800C10
800610
800210
800310
800190
800090
800050
800070
800030
800010
ENDCHAR
STARTCHAR 0144
ENCODING 324
SWIDTH 617 0
DWIDTH 24 0
BBX 17 29 4 0
BITMAP
001800
003000
002000
006000
004000
008000
000000
000000
03F000
8F7C00
900E00
A00300
C00100
C00100
800180
800080
800080
800080
800080
800080
800080
800080
800080
800080
800080
800080
800080
800080
800080
ENDCHAR
STARTCHAR 0147
ENCODING 327
SWIDTH 720 0
DWIDTH 28 0
BBX 20 35 4 0
BITMAP
060600
030C00
019800
00D000
006000
000000
000000
000000
800010
C00010
E00010
B00010
900010
980010
8C0010
860010
820010
830010
818010
808010
804010
806010
803010
801010
801810
800C10
800610
800210
800310
800190
800090
800050
800070
800030
800010
ENDCHAR
STARTCHAR 0148
ENCODING 328
SWIDTH 617 0
DWIDTH 24 0
BBX 17 28 4 0
BITMAP
181800
0C3000
066000
03C000
018000
000000
000000
03F000
8F7C00
900E00
A00300
C00100
C00100
800180
800080
800080
800080
800080
800080
800080
800080
800080
800080
800080
800080
800080
800080
800080
ENDCHAR
STARTCHAR 014C
ENCODING 332
SWIDTH 720 0
DWIDTH 28 0
BBX 25 33 2 0
BITMAP
01FFC000
00000000
00000000
00000000
00000000
003E0000
01FFC000
07007000
0C001800
18000C00
10000400
30000600
20000200
60000300
40000100
40000100
40000100
C0000100
C0000180
C0000180
C0000180
C0000100
40000100
40000100
60000300
60000300
20000200
30000600
18000C00
0C001800
06003000
03C1E000
00FF8000
ENDCHAR
STARTCHAR 014D
ENCODING 333
SWIDTH 591 0
DWIDTH 23 0
BBX 19 26 2 0
BITMAP
0FFE00
000000
000000
000000
000000
01F800
071E00
1C0300
100180
3000C0
600040
600040
400060
400060
C00020
C00020
C00020
400020
400060
400040
600040
2000C0
300180
180300
0E0E00
03F800
ENDCHAR
STARTCHAR 0152
ENCODING 338
SWIDTH 951 0
DWIDTH 37 0
BBX 32 27 2 0
BITMAP
00FFFFFF
03804000
0E004000
18004000
30004000
20004000
60004000
40004000
40004000
C0004000
80004000
80004000
80007FFE
80007FFE
80004000
80004000
C0004000
C0004000
40004000
40004000
60004000
30004000
10004000
18004000
0E004000
03C04000
00FFFFFF
ENDCHAR
STARTCHAR 0153
ENCODING 339
SWIDTH 1028 0
DWIDTH 40 0
BBX 36 21 2 0
BITMAP
01F800FC00
071E038700
1C03060180
10018C00C0
3000980060
6000D00060
6000700020
4000700020
4000600030
C000200030
C0003FFFF0
C000200000
4000600000
4000600000
4000700000
6000D00020
2000980060
30018C0040
1803060180
0E0E038700
03F801FE00
ENDCHAR
STARTCHAR 0154
ENCODING 340
SWIDTH 591 0
DWIDTH 23 0
BBX 17 36 4 0
BITMAP
002000
006000
00C000
008000
018000
010000
000000
000000
000000
FFF000
801C00
800600
800100
800180
800080
800080
800080
800080
800080
800100
800100
800600
801C00
FFF000
818000
80C000
804000
806000
803000
801000
801800
800C00
800600
800200
800300
800180
ENDCHAR
STARTCHAR 0155
ENCODING 341
SWIDTH 308 0
DWIDTH 12 0
BBX 9 29 3 0
BITMAP
0200
0600
0C00
0800
1800
1000
0000
0000
0000
8F80
B800
A000
C000
C000
C000
8000
8000
8000
8000
8000
8000
8000
8000
8000
8000
8000
8000
8000
8000
ENDCHAR
STARTCHAR 0158
ENCODING 344
SWIDTH 591 0
DWIDTH 23 0
BBX 17 35 4 0
BITMAP
303000
106000
08C000
0D8000
070000
000000
000000
000000
FFF000
801C00
800600
800100
800180
800080
800080
800080
800080
800080
800100
800100
800600
801C00
FFF000
818000
80C000
804000
806000
803000
801000
801800
800C00
800600
800200
800300
800180
ENDCHAR
STARTCHAR 0159
ENCODING 345
SWIDTH 308 0
DWIDTH 12 0
BBX 11 28 1 0
BITMAP
C0C0
6180
3300
1E00
0C00
0000
0000
0000
23E0
2E00
2800
3000
3000
3000
2000
2000
2000
2000
2000
2000
2000
2000
2000
2000
2000
2000
2000
2000
ENDCHAR
STARTCHAR 015A
ENCODING 346
SWIDTH 591 0
DWIDTH 23 0
BBX 19 36 2 0
BITMAP
000C00
000C00
001800
001000
002000
002000
000000
000000
01F000
0FFE00
1C0300
300180
200080
6000C0
600040
400040
600040
600000
200000
300000
1C0000
07E000
007C00
000700
0001C0
0000C0
000060
C00060
C00060
400060
400060
600040
3000C0
180180
0E0700
03FC00
ENDCHAR
STARTCHAR 015B
ENCODING 347
SWIDTH 488 0
DWIDTH 19 0
BBX 15 29 2 0
BITMAP
0010
0030
0060
0040
00C0
0080
0000
0000
0FE0
1C38
300C
6004
4006
4006
4000
6000
3000
1E00
07F0
003C
0006
0006
C002
C002
4002
6006
300C
1C38
0FF0
ENDCHAR
STARTCHAR 015E
ENCODING 350
SWIDTH 591 0
DWIDTH 23 0
BBX 19 38 2 -10
BITMAP
01F000
0FFE00
1C0300
300180
200080
6000C0
600040
400040
600040
600000
200000
300000
1C0000
07E000
007C00
000700
0001C0
0000C0
000060
C00060
C00060
400060
400060
600040
3000C0
180180
0E0700
03FC00
004000
00C000
008000
00F800
000C00
000400
000400
000400
00F800
00E000
ENDCHAR
STARTCHAR 015F
ENCODING 351
SWIDTH 488 0
DWIDTH 19 0
BBX 15 31 2 -10
BITMAP
0FE0
1C38
300C
6004
4006
4006
4000
6000
3000
1E00
07F0
003C
0006
0006
C002
C002
4002
6006
300C
1C38
0FF0
0180
0100
0100
03F0
0018
0008
0008
0018
01F0
01C0
ENDCHAR
STARTCHAR 0160
ENCODING 352
SWIDTH 591 0
DWIDTH 23 0
BBX 19 35 2 0
BITMAP
040600
060C00
031800
01B000
00E000
000000
000000
01F000
0FFE00
1C0300
300180
200080
6000C0
600040
400040
600040
600000
200000
300000
1C0000
07E000
007C00
000700
0001C0
0000C0
000060
C00060
C00060
400060
400060
600040
3000C0
180180
0E0700
03FC00
ENDCHAR
STARTCHAR 0161
ENCODING 353
SWIDTH 488 0
DWIDTH 19 0
BBX 15 28 2 0
BITMAP
1818
0C30
0660
02C0
0180
0000
0000
0FE0
1C38
300C
6004
4006
4006
4000
6000
3000
1E00
07F0
003C
0006
0006
C002
C002
4002
6006
300C
1C38
0FF0
ENDCHAR
STARTCHAR 0162
ENCODING 354
SWIDTH 565 0
DWIDTH 22 0
BBX 19 37 2 -10
BITMAP
FFFFE0
004000
004000
004000
004000
004000
004000
004000
004000
004000
004000
004000
004000
004000
004000
004000
004000
004000
004000
004000
004000
004000
004000
004000
004000
004000
004000
00C000
00C000
008000
01F800
000C00
000400
000400
000C00
00F800
00E000
ENDCHAR
STARTCHAR 0163
ENCODING 355
SWIDTH 360 0
DWIDTH 14 0
BBX 12 37 1 -10
BITMAP
0400
0400
0400
0400
0400
0400
0400
FFE0
0400
0400
0400
0400
0400
0400
0400
0400
0400
0400
0400
0400
0400
0400
0400
0400
0400
0600
03E0
0100
0300
0200
03E0
0010
0010
0010
0010
03E0
03C0
ENDCHAR
STARTCHAR 0164
ENCODING 356
SWIDTH 565 0
DWIDTH 22 0
BBX 19 35 2 0
BITMAP
0C0400
060C00
031800
01B000
00E000
000000
000000
000000
FFFFE0
004000
004000
004000
004000
004000
004000
004000
004000
004000
004000
004000
004000
004000
004000
004000
004000
004000
004000
004000
004000
004000
004000
004000
004000
004000
004000
ENDCHAR
STARTCHAR 0165
ENCODING 357
SWIDTH 437 0
DWIDTH 17 0
BBX 15 29 1 0
BITMAP
000E
000E
0406
0402
0402
0402
0404
0408
0400
FFE0
0400
0400
0400
0400
0400
0400
0400
0400
0400
0400
0400
0400
0400
0400
0400
0400
0400
0600
03E0
ENDCHAR
STARTCHAR 0166
ENCODING 358
SWIDTH 565 0
DWIDTH 22 0
BBX 19 27 2 0
BITMAP
FFFFE0
004000
004000
004000
004000
004000
004000
004000
004000
004000
3FFF80
3FFF80
004000
004000
004000
004000
004000
004000
004000
004000
004000
004000
004000
004000
004000
004000
004000
ENDCHAR
STARTCHAR 0167
ENCODING 359
SWIDTH 360 0
DWIDTH 14 0
BBX 11 27 1 0
BITMAP
0400
0400
0400
0400
0400
0400
0400
FFE0
0400
0400
0400
0400
0400
0400
FFE0
0400
0400
0400
0400
0400
0400
0400
0400
0400
0400
0600
03E0
ENDCHAR
STARTCHAR 0168
ENCODING 360
SWIDTH 668 0
DWIDTH 26 0
BBX 21 35 3 0
BITMAP
008200
03E200
023600
061C00
000000
000000
000000
000000
800018
800018
800018
800018
800018
800018
800018
800018
800018
800018
800018
800018
800018
800018
800018
800018
800018
800010
C00010
C00010
400030
400020
600020
300040
1800C0
0E0380
03FE00
ENDCHAR
STARTCHAR 0169
ENCODING 361
SWIDTH 591 0
DWIDTH 23 0
BBX 17 28 4 0
BITMAP
0C1000
1B1000
11B000
304000
000000
000000
000000
000000
800180
800180
800180
800180
800180
800180
800180
800180
800180
800180
800180
800180
800180
800180
800180
C00380
600780
700D80
3C3980
0FE180
ENDCHAR
STARTCHAR 016A
ENCODING 362
SWIDTH 668 0
DWIDTH 26 0
BBX 21 33 3 0
BITMAP
07FF00
000000
000000
000000
000000
000000
800018
800018
800018
800018
800018
800018
800018
800018
800018
800018
800018
800018
800018
800018
800018
800018
800018
800010
C00010
C00010
400030
400020
600020
300040
1800C0
0E0380
03FE00
ENDCHAR
STARTCHAR 016B
ENCODING 363
SWIDTH 591 0
DWIDTH 23 0
BBX 17 26 4 0
BITMAP
3FF800
000000
000000
000000
000000
000000
800180
800180
800180
800180
800180
800180
800180
800180
800180
800180
800180
800180
800180
800180
800180
C00380
600780
700D80
3C3980
0FE180
ENDCHAR
STARTCHAR 016E
ENCODING 366
SWIDTH 668 0
DWIDTH 26 0
BBX 21 37 3 0
BITMAP
007000
008800
010800
010800
008800
007000
000000
000000
000000
000000
800018
800018
800018
800018
800018
800018
800018
800018
800018
800018
800018
800018
800018
800018
800018
800018
800018
800010
C00010
C00010
400030
400020
600020
300040
1800C0
0E0380
03FE00
ENDCHAR
STARTCHAR 016F
ENCODING 367
SWIDTH 591 0
DWIDTH 23 0
BBX 17 30 4 0
BITMAP
078000
044000
084000
084000
04C000
030000
000000
000000
000000
000000
800180
800180
800180
800180
800180
800180
800180
800180
800180
800180
800180
800180
800180
800180
800180
C00380
600780
700D80
3C3980
0FE180
ENDCHAR
STARTCHAR 0172
ENCODING 370
SWIDTH 668 0
DWIDTH 26 0
BBX 21 33 3 -6
BITMAP
800018
800018
800018
800018
800018
800018
800018
800018
800018
800018
800018
800018
800018
800018
800018
800018
800018
800010
C00010
C00010
400030
400020
600020
300040
1800C0
0E0380
03FE00
006000
00C000
008000
008000
00C000
007800
ENDCHAR
STARTCHAR 0173
ENCODING 371
SWIDTH 591 0
DWIDTH 23 0
BBX 17 26 4 -6
BITMAP
800180
800180
800180
800180
800180
800180
800180
800180
800180
800180
800180
800180
800180
800180
800180
C00380
600780
700D80
3C3980
0FE380
000600
000C00
000800
000800
000400
000380
ENDCHAR
STARTCHAR 0174
ENCODING 372
SWIDTH 977 0
DWIDTH 38 0
BBX 37 35 1 0
BITMAP
0000700000
0000D80000
00018C0000
0003040000
0006020000
0000000000
0000000000
0000000000
8000600018
C000700010
C000500010
4000D00030
4000980020
6000880020
2001880020
20010C0060
3001040040
3003040040
10020600C0
10020200C0
1806020080
0804030080
0804010180
0C0C010100
0C08018100
0408008300
0418008300
061000C200
0210004200
0230004600
0220006400
0320002400
0160002C00
0140003C00
01C0001800
ENDCHAR
STARTCHAR 0175
ENCODING 373
SWIDTH 797 0
DWIDTH 31 0
BBX 28 28 2 0
BITMAP
000E0000
00190000
00318000
0060C000
00406000
00000000
00000000
00000000
80060030
C0060020
400E0020
400B0060
60090040
20190040
201180C0
301080C0
30308080
1020C180
10204180
18604100
08406100
08402300
0CC02200
0C803200
04801600
07801600
07001C00
03000C00
ENDCHAR
STARTCHAR 0176
ENCODING 374
SWIDTH 565 0
DWIDTH 22 0
BBX 18 35 2 0
BITMAP
00E000
01B000
031000
060800
0C0400
000000
000000
000000
C00040
4000C0
600080
200180
300100
100300
180200
080600
0C0C00
040C00
061800
021800
033000
013000
01E000
00E000
00C000
00C000
00C000
00C000
00C000
00C000
00C000
00C000
00C000
00C000
00C000
ENDCHAR
STARTCHAR 0177
ENCODING 375
SWIDTH 514 0
DWIDTH 20 0
BBX 17 35 2 -7
BITMAP
03C000
026000
043000
0C1000
180800
000000
000000
000000
800180
C00100
400300
600200
200600
200600
300400
100C00
180800
081800
081000
0C3000
042000
062000
026000
024000
03C000
018000
018000
010000
030000
030000
020000
060000
040000
180000
F00000
ENDCHAR
STARTCHAR 0178
ENCODING 376
SWIDTH 565 0
DWIDTH 22 0
BBX 18 34 2 0
BITMAP
061800
073800
021000
000000
000000
000000
000000
C00040
4000C0
600080
200180
300100
100300
180200
080600
0C0C00
040C00
061800
021800
033000
013000
01E000
00E000
00C000
00C000
00C000
00C000
00C000
00C000
00C000
00C000
00C000
00C000
00C000
ENDCHAR
STARTCHAR 0179
ENCODING 377
SWIDTH 591 0
DWIDTH 23 0
BBX 18 36 2 0
BITMAP
000400
000C00
001800
001000
003000
002000
000000
000000
000000
FFFFC0
0000C0
0000C0
000180
000300
000300
000600
000C00
000C00
001800
003000
002000
006000
00C000
008000
018000
030000
020000
060000
0C0000
080000
180000
300000
200000
600000
C00000
FFFFC0
ENDCHAR
STARTCHAR 017A
ENCODING 378
SWIDTH 488 0
DWIDTH 19 0
BBX 16 29 2 0
BITMAP
0018
0030
0020
0040
00C0
0080
0000
0000
0000
7FFF
0002
0004
000C
0018
0030
0020
0040
00C0
0180
0300
0200
0600
0C00
1800
1000
2000
6000
C000
FFFF
ENDCHAR
STARTCHAR 017B
ENCODING 379
SWIDTH 591 0
DWIDTH 23 0
BBX 18 34 2 0
BITMAP
00E000
00E000
004000
000000
000000
000000
000000
FFFFC0
0000C0
0000C0
000180
000300
000300
000600
000C00
000C00
001800
003000
002000
006000
00C000
008000
018000
030000
020000
060000
0C0000
080000
180000
300000
200000
600000
C00000
FFFFC0
ENDCHAR
STARTCHAR 017C
ENCODING 380
SWIDTH 488 0
DWIDTH 19 0
BBX 16 27 2 0
BITMAP
0180
0180
0000
0000
0000
0000
0000
7FFF
0002
0004
000C
0018
0030
0020
0040
00C0
0180
0300
0200
0600
0C00
1800
1000
2000
6000
C000
FFFF
ENDCHAR
STARTCHAR 017D
ENCODING 381
SWIDTH 591 0
DWIDTH 23 0
BBX 18 35 2 0
BITMAP
040600
020C00
031800
01B000
00E000
000000
000000
000000
FFFFC0
0000C0
0000C0
000180
000300
000300
000600
000C00
000C00
001800
003000
002000
006000
00C000
008000
018000
030000
020000
060000
0C0000
080000
180000
300000
200000
600000
C00000
FFFFC0
ENDCHAR
STARTCHAR 017E
ENCODING 382
SWIDTH 488 0
DWIDTH 19 0
BBX 16 28 2 0
BITMAP
1818
0C30
0660
03C0
0180
0000
0000
0000
7FFF
0002
0004
000C
0018
0030
0020
0040
00C0
0180
0300
0200
0600
0C00
1800
1000
2000
6000
C000
FFFF
ENDCHAR
STARTCHAR 01A0
ENCODING 416
SWIDTH 720 0
DWIDTH 28 0
BBX 25 30 2 0
BITMAP
00000C00
00000800
003E1800
01FFF000
07007000
0C001800
18000C00
10000400
30000600
20000200
60000300
40000100
40000100
40000100
C0000100
C0000180
C0000180
C0000180
C0000100
40000100
40000100
60000300
60000300
20000200
30000600
18000C00
0C001800
06003000
03C1E000
00FF8000
ENDCHAR
STARTCHAR 01A1
ENCODING 417
SWIDTH 591 0
DWIDTH 23 0
BBX 19 23 2 0
BITMAP
000040
000040
01F9C0
071F80
1C0300
100180
3000C0
600040
600040
400060
400060
C00020
C00020
C00020
400020
400060
400040
600040
2000C0
300180
180300
0E0E00
03F800
ENDCHAR
STARTCHAR 01AF
ENCODING 431
SWIDTH 668 0
DWIDTH 26 0
BBX 25 30 3 0
BITMAP
00000180
00000180
00000300
80001E00
80001800
80001800
80001800
80001800
80001800
80001800
80001800
80001800
80001800
80001800
80001800
80001800
80001800
80001800
80001800
80001800
80001000
C0001000
C0001000
40003000
40002000
60002000
30004000
1800C000
0E038000
03FE0000
ENDCHAR
STARTCHAR 01B0
ENCODING 432
SWIDTH 617 0
DWIDTH 24 0
BBX 21 23 4 0
BITMAP
000018
000010
000030
8001E0
800180
800180
800180
800180
800180
800180
800180
800180
800180
800180
800180
800180
800180
800180
C00380
600780
700D80
3C3980
0FE180
ENDCHAR
STARTCHAR 02C6
ENCODING 710
SWIDTH 360 0
DWIDTH 14 0
BBX 10 5 2 23
BITMAP
0E00
1300
3180
60C0
C040
ENDCHAR
STARTCHAR 02C7
ENCODING 711
SWIDTH 334 0
DWIDTH 13 0
BBX 10 5 2 23
BITMAP
C0C0
6180
3300
1600
0C00
ENDCHAR
STARTCHAR 02D8
ENCODING 728
SWIDTH 360 0
DWIDTH 14 0
BBX 11 3 2 24
BITMAP
8060
60C0
3F00
ENDCHAR
STARTCHAR 02D9
ENCODING 729
SWIDTH 102 0
DWIDTH 4 0
BBX 3 2 1 24
BITMAP
E0
E0
ENDCHAR
STARTCHAR 02DA
ENCODING 730
SWIDTH 205 0
DWIDTH 8 0
BBX 6 6 1 24
BITMAP
78
C4
84
84
48
30
ENDCHAR
STARTCHAR 02DB
ENCODING 731
SWIDTH 180 0
DWIDTH 7 0
BBX 5 6 1 -6
BITMAP
20
60
C0
80
C0
78
ENDCHAR
STARTCHAR 02DC
ENCODING 732
SWIDTH 360 0
DWIDTH 14 0
BBX 10 4 2 24
BITMAP
3040
4C40
C780
C100
ENDCHAR
STARTCHAR 0300
ENCODING 768
SWIDTH 0 0
DWIDTH 0 0
BBX 6 7 -8 24
BITMAP
C0
60
20
30
10
08
0C
ENDCHAR
STARTCHAR 0301
ENCODING 769
SWIDTH 0 0
DWIDTH 0 0
BBX 5 7 -6 24
BITMAP
18
10
30
20
40
C0
80
ENDCHAR
STARTCHAR 0302
ENCODING 770
SWIDTH 0 0
DWIDTH 0 0
BBX 10 5 -12 23
BITMAP
1C00
3200
6300
C180
80C0
ENDCHAR
STARTCHAR 0303
ENCODING 771
SWIDTH 0 0
DWIDTH 0 0
BBX 10 4 -11 24
BITMAP
3040
58C0
C780
8300
ENDCHAR
STARTCHAR 0304
ENCODING 772
SWIDTH 0 0
DWIDTH 0 0
BBX 11 1 -12 25
BITMAP
FFE0
ENDCHAR
STARTCHAR 0306
ENCODING 774
SWIDTH 0 0
DWIDTH 0 0
BBX 11 3 -13 24
BITMAP
C020
60C0
3F80
ENDCHAR
STARTCHAR 0307
ENCODING 775
SWIDTH 0 0
DWIDTH 0 0
BBX 3 3 -6 24
BITMAP
E0
E0
40
ENDCHAR
STARTCHAR 0308
ENCODING 776
SWIDTH 0 0
DWIDTH 0 0
BBX 8 3 -11 24
BITMAP
E7
E7
02
ENDCHAR
STARTCHAR 0309
ENCODING 777
SWIDTH 0 0
DWIDTH 0 0
BBX 7 7 -8 24
BITMAP
38
6C
C6
02
04
08
10
ENDCHAR
STARTCHAR 030A
ENCODING 778
SWIDTH 0 0
DWIDTH 0 0
BBX 6 6 -8 24
BITMAP
78
C4
84
84
48
30
ENDCHAR
STARTCHAR 030C
ENCODING 780
SWIDTH 0 0
DWIDTH 0 0
BBX 10 5 -12 23
BITMAP
C0C0
6180
3300
1E00
0C00
ENDCHAR
STARTCHAR 031B
ENCODING 795
SWIDTH 0 0
DWIDTH 0 0
BBX 6 4 -7 19
BITMAP
0C
08
38
F0
ENDCHAR
STARTCHAR 0323
ENCODING 803
SWIDTH 0 0
DWIDTH 0 0
BBX 3 3 -4 -8
BITMAP
E0
E0
40
ENDCHAR
STARTCHAR 0327
ENCODING 807
SWIDTH 0 0
DWIDTH 0 0
BBX 7 10 -8 -10
BITMAP
60
40
40
FC
06
02
02
04
7C
70
ENDCHAR
STARTCHAR 0328
ENCODING 808
SWIDTH 0 0
DWIDTH 0 0
BBX 5 6 -6 -6
BITMAP
20
40
80
80
80
78
ENDCHAR
STARTCHAR 1E80
ENCODING 7808
SWIDTH 977 0
DWIDTH 38 0
BBX 37 36 1 0
BITMAP
0002000000
0003000000
0001800000
0000800000
0000C00000
0000400000
0000000000
0000000000
0000000000
8000600018
C000700010
C000500010
4000D00030
4000980020
6000880020
2001880020
20010C0060
3001040040
3003040040
10020600C0
10020200C0
1806020080
0804030080
0804010180
0C0C010100
0C08018100
0408008300
0418008300
061000C200
0210004200
0230004600
0220006400
0320002400
0160002C00
0140003C00
01C0001800
ENDCHAR
STARTCHAR 1E81
ENCODING 7809
SWIDTH 797 0
DWIDTH 31 0
BBX 28 29 2 0
BITMAP
00600000
00300000
00100000
00180000
00080000
00040000
00000000
00000000
00000000
80060030
C0060020
400E0020
400B0060
60090040
20190040
201180C0
301080C0
30308080
1020C180
10204180
18604100
08406100
08402300
0CC02200
0C803200
04801600
07801600
07001C00
03000C00
ENDCHAR
STARTCHAR 1E82
ENCODING 7810
SWIDTH 977 0
DWIDTH 38 0
BBX 37 36 1 0
BITMAP
0000060000
0000040000
0000080000
0000180000
0000100000
0000200000
0000000000
0000000000
0000000000
8000600018
C000700010
C000500010
4000D00030
4000980020
6000880020
2001880020
20010C0060
3001040040
3003040040
10020600C0
10020200C0
1806020080
0804030080
0804010180
0C0C010100
0C08018100
0408008300
0418008300
061000C200
0210004200
0230004600
0220006400
0320002400
0160002C00
0140003C00
01C0001800
ENDCHAR
STARTCHAR 1E83
ENCODING 7811
SWIDTH 797 0
DWIDTH 31 0
BBX 28 29 2 0
BITMAP
00004000
0000C000
00018000
00010000
00030000
00020000
00000000
00000000
00000000
80060030
C0060020
400E0020
400B0060
60090040
20190040
201180C0
301080C0
30308080
1020C180
10204180
18604100
08406100
08402300
0CC02200
0C803200
04801600
07801600
07001C00
03000C00
ENDCHAR
STARTCHAR 1E84
ENCODING 7812
SWIDTH 977 0
DWIDTH 38 0
BBX 37 34 1 0
BITMAP
00038C0000
00038C0000
0001080000
0000000000
0000000000
0000000000
0000000000
8000600018
C000700010
C000500010
4000D00030
4000980020
6000880020
2001880020
20010C0060
3001040040
3003040040
10020600C0
10020200C0
1806020080
0804030080
0804010180
0C0C010100
0C08018100
0408008300
0418008300
061000C200
0210004200
0230004600
0220006400
0320002400
0160002C00
0140003C00
01C0001800
ENDCHAR
STARTCHAR 1E85
ENCODING 7813
SWIDTH 797 0
DWIDTH 31 0
BBX 28 27 2 0
BITMAP
0031C000
0031C000
00000000
00000000
00000000
00000000
00000000
80060030
C0060020
400E0020
400B0060
60090040
20190040
201180C0
301080C0
30308080
1020C180
10204180
18604100
08406100
08402300
0CC02200
0C803200
04801600
07801600
07001C00
03000C00
ENDCHAR
STARTCHAR 1EA0
ENCODING 7840
SWIDTH 668 0
DWIDTH 26 0
BBX 23 35 2 -8
BITMAP
003000
003800
006800
004800
004C00
00C400
008600
008200
018200
010300
030100
020180
020080
060080
0400C0
0C0040
080060
0FFFE0
180020
100030
300010
200018
200008
600008
40000C
C00004
C00006
000000
000000
000000
000000
000000
003000
003800
003000
ENDCHAR
STARTCHAR 1EA1
ENCODING 7841
SWIDTH 617 0
DWIDTH 24 0
BBX 19 29 2 -8
BITMAP
03F800
0F1C60
180260
300160
2000E0
6000E0
400060
400060
C00060
C00060
C00060
C00060
C00060
400060
400060
6000E0
2000E0
300160
180360
0E0C60
03F860
000000
000000
000000
000000
000000
006000
007000
006000
ENDCHAR
STARTCHAR 1EA2
ENCODING 7842
SWIDTH 668 0
DWIDTH 26 0
BBX 23 36 2 0
BITMAP
007C00
00C400
000600
000400
000C00
001800
000000
000000
000000
003000
003800
006800
004800
004C00
00C400
008600
008200
018200
010300
030100
020180
020080
060080
0400C0
0C0040
080060
0FFFE0
180020
100030
300010
200018
200008
600008
40000C
C00004
C00006
ENDCHAR
STARTCHAR 1EA3
ENCODING 7843
SWIDTH 617 0
DWIDTH 24 0
BBX 19 29 2 0
BITMAP
00F000
010800
000800
000800
001000
002000
000000
000000
03F800
0F1C60
180260
300160
2000E0
6000E0
400060
400060
C00060
C00060
C00060
C00060
C00060
400060
400060
6000E0
2000E0
300160
180360
0E0C60
03F860
ENDCHAR
STARTCHAR 1EA4
ENCODING 7844
SWIDTH 668 0
DWIDTH 26 0
BBX 23 41 2 0
BITMAP
000018
000030
000020
000060
000040
000080
003800
006C00
00C600
018200
030100
000000
000000
000000
003000
003800
006800
004800
004C00
00C400
008600
008200
018200
010300
030100
020180
020080
060080
0400C0
0C0040
080060
0FFFE0
180020
100030
300010
200018
200008
600008
40000C
C00004
C00006
ENDCHAR
STARTCHAR 1EA5
ENCODING 7845
SWIDTH 617 0
DWIDTH 24 0
BBX 19 34 2 0
BITMAP
000060
000040
0000C0
000080
000100
000300
00E000
019000
031800
020C00
040600
000000
000000
03F800
0F1C60
180260
300160
2000E0
6000E0
400060
400060
C00060
C00060
C00060
C00060
C00060
400060
400060
6000E0
2000E0
300160
180360
0E0C60
03F860
ENDCHAR
STARTCHAR 1EA6
ENCODING 7846
SWIDTH 668 0
DWIDTH 26 0
BBX 23 41 2 0
BITMAP
001800
000C00
000400
000600
000200
000100
003800
006C00
00C600
018200
030100
000000
000000
000000
003000
003800
006800
004800
004C00
00C400
008600
008200
018200
010300
030100
020180
020080
060080
0400C0
0C0040
080060
0FFFE0
180020
100030
300010
200018
200008
600008
40000C
C00004
C00006
ENDCHAR
STARTCHAR 1EA7
ENCODING 7847
SWIDTH 617 0
DWIDTH 24 0
BBX 19 34 2 0
BITMAP
003000
001000
001800
000800
000400
000600
00E000
019000
031800
020C00
040600
000000
000000
03F800
0F1C60
180260
300160
2000E0
6000E0
400060
400060
C00060
C00060
C00060
C00060
C00060
400060
400060
6000E0
2000E0
300160
180360
0E0C60
03F860
ENDCHAR
STARTCHAR 1EA8
ENCODING 7848
SWIDTH 668 0
DWIDTH 26 0
BBX 23 41 2 0
BITMAP
0003C0
000660
000020
000020
000060
000080
003800
006C00
00C600
018200
030100
000000
000000
000000
003000
003800
006800
004800
004C00
00C400
008600
008200
018200
010300
030100
020180
020080
060080
0400C0
0C0040
080060
0FFFE0
180020
100030
300010
200018
200008
600008
40000C
C00004
C00006
ENDCHAR
STARTCHAR 1EA9
ENCODING 7849
SWIDTH 617 0
DWIDTH 24 0
BBX 19 34 2 0
BITMAP
000F80
0008C0
000040
0000C0
000080
000300
00E000
019000
031800
020C00
040600
000000
000000
03F800
0F1C60
180260
300160
2000E0
6000E0
400060
400060
C00060
C00060
C00060
C00060
C00060
400060
400060
6000E0
2000E0
300160
180360
0E0C60
03F860
ENDCHAR
STARTCHAR 1EAA
ENCODING 7850
SWIDTH 668 0
DWIDTH 26 0
BBX 23 40 2 0
BITMAP
00E100
01B100
011F00
010400
000000
003800
006C00
00C600
018200
030100
000000
000000
000000
003000
003800
006800
004800
004C00
00C400
008600
008200
018200
010300
030100
020180
020080
060080
0400C0
0C0040
080060
0FFFE0
180020
100030
300010
200018
200008
600008
40000C
C00004
C00006
ENDCHAR
STARTCHAR 1EAB
ENCODING 7851
SWIDTH 617 0
DWIDTH 24 0
BBX 19 33 2 0
BITMAP
03C200
026600
043C00
000000
000000
00E000
019000
031800
020C00
040600
000000
000000
03F800
0F1C60
180260
300160
2000E0
6000E0
400060
400060
C00060
C00060
C00060
C00060
C00060
400060
400060
6000E0
2000E0
300160
180360
0E0C60
03F860
ENDCHAR
STARTCHAR 1EAC
ENCODING 7852
SWIDTH 668 0
DWIDTH 26 0
BBX 23 43 2 -8
BITMAP
003800
006C00
00C600
018200
030100
000000
000000
000000
003000
003800
006800
004800
004C00
00C400
008600
008200
018200
010300
030100
020180
020080
060080
0400C0
0C0040
080060
0FFFE0
180020
100030
300010
200018
200008
600008
40000C
C00004
C00006
000000
000000
000000
000000
000000
003000
003800
003000
ENDCHAR
STARTCHAR 1EAD
ENCODING 7853
SWIDTH 617 0
DWIDTH 24 0
BBX 19 36 2 -8
BITMAP
00E000
019000
031800
020C00
040600
000000
000000
03F800
0F1C60
180260
300160
2000E0
6000E0
400060
400060
C00060
C00060
C00060
C00060
C00060
400060
400060
6000E0
2000E0
300160
180360
0E0C60
03F860
000000
000000
000000
000000
000000
006000
007000
006000
ENDCHAR
STARTCHAR 1EAE
ENCODING 7854
SWIDTH 668 0
DWIDTH 26 0
BBX 23 41 2 0
BITMAP
000300
000200
000600
000400
000800
001800
001000
020180
030300
00FE00
000000
000000
000000
000000
003000
003800
006800
004800
004C00
00C400
008600
008200
018200
010300
030100
020180
020080
060080
0400C0
0C0040
080060
0FFFE0
180020
100030
300010
200018
200008
600008
40000C
C00004
C00006
ENDCHAR
STARTCHAR 1EAF
ENCODING 7855
SWIDTH 617 0
DWIDTH 24 0
BBX 19 34 2 0
BITMAP
000600
000C00
000800
001800
001000
002000
000000
0C0200
060C00
01F800
000000
000000
000000
03F800
0F1C60
180260
300160
2000E0
6000E0
400060
400060
C00060
C00060
C00060
C00060
C00060
400060
400060
6000E0
2000E0
300160
180360
0E0C60
03F860
ENDCHAR
STARTCHAR 1EB0
ENCODING 7856
SWIDTH 668 0
DWIDTH 26 0
BBX 23 41 2 0
BITMAP
030000
018000
008000
00C000
004000
002000
001000
020180
030300
00FE00
000000
000000
000000
000000
003000
003800
006800
004800
004C00
00C400
008600
008200
018200
010300
030100
020180
020080
060080
0400C0
0C0040
080060
0FFFE0
180020
100030
300010
200018
200008
600008
40000C
C00004
C00006
ENDCHAR
STARTCHAR 1EB1
ENCODING 7857
SWIDTH 617 0
DWIDTH 24 0
BBX 19 34 2 0
BITMAP
060000
020000
030000
018000
008000
004000
000000
0C0200
060C00
01F800
000000
000000
000000
03F800
0F1C60
180260
300160
2000E0
6000E0
400060
400060
C00060
C00060
C00060
C00060
C00060
400060
400060
6000E0
2000E0
300160
180360
0E0C60
03F860
ENDCHAR
STARTCHAR 1EB2
ENCODING 7858
SWIDTH 668 0
DWIDTH 26 0
BBX 23 41 2 0
BITMAP
003800
006C00
008600
000600
000400
000800
001000
020180
030300
00FE00
000000
000000
000000
000000
003000
003800
006800
004800
004C00
00C400
008600
008200
018200
010300
030100
020180
020080
060080
0400C0
0C0040
080060
0FFFE0
180020
100030
300010
200018
200008
600008
40000C
C00004
C00006
ENDCHAR
STARTCHAR 1EB3
ENCODING 7859
SWIDTH 617 0
DWIDTH 24 0
BBX 19 34 2 0
BITMAP
00F000
019800
000800
000800
001800
002000
000000
0C0200
060C00
01F800
000000
000000
000000
03F800
0F1C60
180260
300160
2000E0
6000E0
400060
400060
C00060
C00060
C00060
C00060
C00060
400060
400060
6000E0
2000E0
300160
180360
0E0C60
03F860
ENDCHAR
STARTCHAR 1EB4
ENCODING 7860
SWIDTH 668 0
DWIDTH 26 0
BBX 23 39 2 0
BITMAP
01E100
013300
031E00
000000
000000
020180
030300
00FE00
000000
000000
000000
000000
003000
003800
006800
004800
004C00
00C400
008600
008200
018200
010300
030100
020180
020080
060080
0400C0
0C0040
080060
0FFFE0
180020
100030
300010
200018
200008
600008
40000C
C00004
C00006
ENDCHAR
STARTCHAR 1EB5
ENCODING 7861
SWIDTH 617 0
DWIDTH 24 0
BBX 19 32 2 0
BITMAP
03C600
066400
043C00
000000
000000
0C0200
060C00
01F800
000000
000000
000000
03F800
0F1C60
180260
300160
2000E0
6000E0
400060
400060
C00060
C00060
C00060
C00060
C00060
400060
400060
6000E0
2000E0
300160
180360
0E0C60
03F860
ENDCHAR
STARTCHAR 1EB6
ENCODING 7862
SWIDTH 668 0
DWIDTH 26 0
BBX 23 42 2 -8
BITMAP
020180
030300
00FE00
000000
000000
000000
000000
003000
003800
006800
004800
004C00
00C400
008600
008200
018200
010300
030100
020180
020080
060080
0400C0
0C0040
080060
0FFFE0
180020
100030
300010
200018
200008
600008
40000C
C00004
C00006
000000
000000
000000
000000
000000
003000
003800
003000
ENDCHAR
STARTCHAR 1EB7
ENCODING 7863
SWIDTH 617 0
DWIDTH 24 0
BBX 19 35 2 -8
BITMAP
0C0200
060C00
01F800
000000
000000
000000
03F800
0F1C60
180260
300160
2000E0
6000E0
400060
400060
C00060
C00060
C00060
C00060
C00060
400060
400060
6000E0
2000E0
300160
180360
0E0C60
03F860
000000
000000
000000
000000
000000
006000
007000
006000
ENDCHAR
STARTCHAR 1EB8
ENCODING 7864
SWIDTH 565 0
DWIDTH 22 0
BBX 15 35 4 -8
BITMAP
FFFE
8000
8000
8000
8000
8000
8000
8000
8000
8000
8000
8000
FFFC
FFFC
8000
8000
8000
8000
8000
8000
8000
8000
8000
8000
8000
8000
FFFE
0000
0000
0000
0000
0000
0300
0380
0300
ENDCHAR
STARTCHAR 1EB9
ENCODING 7865
SWIDTH 565 0
DWIDTH 22 0
BBX 18 29 2 -8
BITMAP
03F800
070E00
180300
100180
200080
6000C0
600040
400040
400040
C00040
FFFFC0
C00000
400000
400000
400000
600040
2000C0
300180
180300
0E0E00
03F800
000000
000000
000000
000000
000000
006000
00E000
006000
ENDCHAR
STARTCHAR 1EBA
ENCODING 7866
SWIDTH 565 0
DWIDTH 22 0
BBX 15 36 4 0
BITMAP
07C0
0C40
0060
0060
00C0
0180
0000
0000
0000
FFFE
8000
8000
8000
8000
8000
8000
8000
8000
8000
8000
8000
FFFC
FFFC
8000
8000
8000
8000
8000
8000
8000
8000
8000
8000
8000
8000
FFFE
ENDCHAR
STARTCHAR 1EBB
ENCODING 7867
SWIDTH 565 0
DWIDTH 22 0
BBX 18 29 2 0
BITMAP
01F000
010800
000800
000800
003000
006000
000000
000000
03F800
070E00
180300
100180
200080
6000C0
600040
400040
400040
C00040
FFFFC0
C00000
400000
400000
400000
600040
2000C0
300180
180300
0E0E00
03F800
ENDCHAR
STARTCHAR 1EBC
ENCODING 7868
SWIDTH 565 0
DWIDTH 22 0
BBX 15 35 4 0
BITMAP
0410
1F10
11B0
30E0
0000
0000
0000
0000
FFFE
8000
8000
8000
8000
8000
8000
8000
8000
8000
8000
8000
FFFC
FFFC
8000
8000
8000
8000
8000
8000
8000
8000
8000
8000
8000
8000
FFFE
ENDCHAR
STARTCHAR 1EBD
ENCODING 7869
SWIDTH 565 0
DWIDTH 22 0
BBX 18 28 2 0
BITMAP
038600
06C400
043C00
041800
000000
000000
000000
03F800
070E00
180300
100180
200080
6000C0
600040
400040
400040
C00040
FFFFC0
C00000
400000
400000
400000
600040
2000C0
300180
180300
0E0E00
03F800
ENDCHAR
STARTCHAR 1EBE
ENCODING 7870
SWIDTH 565 0
DWIDTH 22 0
BBX 17 41 4 0
BITMAP
000180
000300
000200
000600
000400
000800
038000
06C000
0C6000
183000
301000
000000
000000
000000
FFFE00
800000
800000
800000
800000
800000
800000
800000
800000
800000
800000
800000
FFFC00
FFFC00
800000
800000
800000
800000
800000
800000
800000
800000
800000
800000
800000
800000
FFFE00
ENDCHAR
STARTCHAR 1EBF
ENCODING 7871
SWIDTH 565 0
DWIDTH 22 0
BBX 19 34 2 0
BITMAP
000060
000040
0000C0
000080
000100
000300
00E000
01B000
031800
060C00
040600
000000
000000
03F800
070E00
180300
100180
200080
6000C0
600040
400040
400040
C00040
FFFFC0
C00000
400000
400000
400000
600040
2000C0
300180
180300
0E0E00
03F800
ENDCHAR
STARTCHAR 1EC0
ENCODING 7872
SWIDTH 565 0
DWIDTH 22 0
BBX 15 41 4 0
BITMAP
0180
00C0
0040
0060
0020
0010
0380
06C0
0C60
1830
3010
0000
0000
0000
FFFE
8000
8000
8000
8000
8000
8000
8000
8000
8000
8000
8000
FFFC
FFFC
8000
8000
8000
8000
8000
8000
8000
8000
8000
8000
8000
8000
FFFE
ENDCHAR
STARTCHAR 1EC1
ENCODING 7873
SWIDTH 565 0
DWIDTH 22 0
BBX 18 34 2 0
BITMAP
003000
003000
001800
000800
000400
000400
00E000
01B000
031800
060C00
040600
000000
000000
03F800
070E00
180300
100180
200080
6000C0
600040
400040
400040
C00040
FFFFC0
C00000
400000
400000
400000
600040
2000C0
300180
180300
0E0E00
03F800
ENDCHAR
STARTCHAR 1EC2
ENCODING 7874
SWIDTH 565 0
DWIDTH 22 0
BBX 15 41 4 0
BITMAP
003C
0066
0002
0002
0006
000C
0380
06C0
0C60
1830
3010
0000
0000
0000
FFFE
8000
8000
8000
8000
8000
8000
8000
8000
8000
8000
8000
FFFC
FFFC
8000
8000
8000
8000
8000
8000
8000
8000
8000
8000
8000
8000
FFFE
ENDCHAR
STARTCHAR 1EC3
ENCODING 7875
SWIDTH 565 0
DWIDTH 22 0
BBX 18 34 2 0
BITMAP
000F80
0018C0
0000C0
0000C0
000180
000300
00E000
01B000
031800
060C00
0C0600
000000
000000
03F800
070E00
180300
100180
200080
6000C0
600040
400040
400040
C00040
FFFFC0
C00000
400000
400000
400000
600040
2000C0
300180
180300
0E0E00
03F800
ENDCHAR
STARTCHAR 1EC4
ENCODING 7876
SWIDTH 565 0
DWIDTH 22 0
BBX 15 40 4 0
BITMAP
0E10
1B10
11F0
1040
0000
0380
06C0
0C60
1830
3010
0000
0000
0000
FFFE
8000
8000
8000
8000
8000
8000
8000
8000
8000
8000
8000
FFFC
FFFC
8000
8000
8000
8000
8000
8000
8000
8000
8000
8000
8000
8000
FFFE
ENDCHAR
STARTCHAR 1EC5
ENCODING 7877
SWIDTH 565 0
DWIDTH 22 0
BBX 18 33 2 0
BITMAP
038600
066600
043C00
000000
000000
00E000
01B000
031800
060C00
040600
000000
000000
03F800
070E00
180300
100180
200080
6000C0
600040
400040
400040
C00040
FFFFC0
C00000
400000
400000
400000
600040
2000C0
300180
180300
0E0E00
03F800
ENDCHAR
STARTCHAR 1EC6
ENCODING 7878
SWIDTH 565 0
DWIDTH 22 0
BBX 15 43 4 -8
BITMAP
0380
06C0
0C60
1830
3010
0000
0000
0000
FFFE
8000
8000
8000
8000
8000
8000
8000
8000
8000
8000
8000
FFFC
FFFC
8000
8000
8000
8000
8000
8000
8000
8000
8000
8000
8000
8000
FFFE
0000
0000
0000
0000
0000
0300
0380
0300
ENDCHAR
STARTCHAR 1EC7
ENCODING 7879
SWIDTH 565 0
DWIDTH 22 0
BBX 18 36 2 -8
BITMAP
00E000
01B000
031800
060C00
040600
000000
000000
03F800
070E00
180300
100180
200080
6000C0
600040
400040
400040
C00040
FFFFC0
C00000
400000
400000
400000
600040
2000C0
300180
180300
0E0E00
03F800
000000
000000
000000
000000
000000
006000
00E000
006000
ENDCHAR
STARTCHAR 1EC8
ENCODING 7880
SWIDTH 205 0
DWIDTH 8 0
BBX 7 36 1 0
BITMAP
7C
C4
06
04
0C
18
00
00
00
10
10
10
10
10
10
10
10
10
10
10
10
10
10
10
10
10
10
10
10
10
10
10
10
10
10
10
ENDCHAR
STARTCHAR 1EC9
ENCODING 7881
SWIDTH 205 0
DWIDTH 8 0
BBX 7 29 1 0
BITMAP
7C
C4
06
04
0C
10
00
00
00
10
10
10
10
10
10
10
10
10
10
10
10
10
10
10
10
10
10
10
10
ENDCHAR
STARTCHAR 1ECA
ENCODING 7882
SWIDTH 205 0
DWIDTH 8 0
BBX 3 35 3 -8
BITMAP
40
40
40
40
40
40
40
40
40
40
40
40
40
40
40
40
40
40
40
40
40
40
40
40
40
40
40
00
00
00
00
00
C0
E0
C0
ENDCHAR
STARTCHAR 1ECB
ENCODING 7883
SWIDTH 205 0
DWIDTH 8 0
BBX 3 35 3 -8
BITMAP
C0
E0
00
00
00
00
00
40
40
40
40
40
40
40
40
40
40
40
40
40
40
40
40
40
40
40
40
00
00
00
00
00
C0
E0
C0
ENDCHAR
STARTCHAR 1ECC
ENCODING 7884
SWIDTH 720 0
DWIDTH 28 0
BBX 25 36 2 -8
BITMAP
003E0000
01FFC000
07007000
0C001800
18000C00
10000400
30000600
20000200
60000300
40000100
40000100
40000100
C0000100
C0000180
C0000180
C0000180
C0000100
40000100
40000100
60000300
60000300
20000200
30000600
18000C00
0C001800
06003000
03C1E000
00FF8000
00000000
00000000
00000000
00000000
00000000
001C0000
001C0000
00080000
ENDCHAR
STARTCHAR 1ECD
ENCODING 7885
SWIDTH 591 0
DWIDTH 23 0
BBX 19 29 2 -8
BITMAP
01F800
071E00
1C0300
100180
3000C0
600040
600040
400060
400060
C00020
C00020
C00020
400020
400060
400040
600040
2000C0
300180
180300
0E0E00
03F800
000000
000000
000000
000000
000000
006000
00E000
006000
ENDCHAR
STARTCHAR 1ECE
ENCODING 7886
SWIDTH 720 0
DWIDTH 28 0
BBX 25 36 2 0
BITMAP
003E0000
00230000
00010000
00030000
00060000
000C0000
00000000
00000000
003E0000
01FFC000
07007000
0C001800
18000C00
10000400
30000600
20000200
60000300
40000100
40000100
40000100
C0000100
C0000180
C0000180
C0000180
C0000100
40000100
40000100
60000300
60000300
20000200
30000600
18000C00
0C001800
06003000
03C1E000
00FF8000
ENDCHAR
STARTCHAR 1ECF
ENCODING 7887
SWIDTH 591 0
DWIDTH 23 0
BBX 19 29 2 0
BITMAP
01F000
010800
000800
000800
003000
006000
000000
000000
01F800
071E00
1C0300
100180
3000C0
600040
600040
400060
400060
C00020
C00020
C00020
400020
400060
400040
600040
2000C0
300180
180300
0E0E00
03F800
ENDCHAR
STARTCHAR 1ED0
ENCODING 7888
SWIDTH 720 0
DWIDTH 28 0
BBX 25 41 2 0
BITMAP
00000C00
00000800
00001800
00003000
00002000
00004000
001C0000
00360000
00630000
00C18000
0180C000
00000000
00000000
003E0000
01FFC000
07007000
0C001800
18000C00
10000400
30000600
20000200
60000300
40000100
40000100
40000100
C0000100
C0000180
C0000180
C0000180
C0000100
40000100
40000100
60000300
60000300
20000200
30000600
18000C00
0C001800
06003000
03C1E000
00FF8000
ENDCHAR
STARTCHAR 1ED1
ENCODING 7889
SWIDTH 591 0
DWIDTH 23 0
BBX 19 34 2 0
BITMAP
000060
000040
0000C0
000080
000100
000300
00E000
01B000
031800
060C00
040600
000000
000000
01F800
071E00
1C0300
100180
3000C0
600040
600040
400060
400060
C00020
C00020
C00020
400020
400060
400040
600040
2000C0
300180
180300
0E0E00
03F800
ENDCHAR
STARTCHAR 1ED2
ENCODING 7890
SWIDTH 720 0
DWIDTH 28 0
BBX 25 41 2 0
BITMAP
000C0000
00060000
00020000
00030000
00018000
00008000
001C0000
00360000
00630000
00C18000
0180C000
00000000
00000000
003E0000
01FFC000
07007000
0C001800
18000C00
10000400
30000600
20000200
60000300
40000100
40000100
40000100
C0000100
C0000180
C0000180
C0000180
C0000100
40000100
40000100
60000300
60000300
20000200
30000600
18000C00
0C001800
06003000
03C1E000
00FF8000
ENDCHAR
STARTCHAR 1ED3
ENCODING 7891
SWIDTH 591 0
DWIDTH 23 0
BBX 19 34 2 0
BITMAP
003000
003000
001800
000800
000400
000400
00E000
01B000
031800
060C00
040600
000000
000000
01F800
071E00
1C0300
100180
3000C0
600040
600040
400060
400060
C00020
C00020
C00020
400020
400060
400040
600040
2000C0
300180
180300
0E0E00
03F800
ENDCHAR
STARTCHAR 1ED4
ENCODING 7892
SWIDTH 720 0
DWIDTH 28 0
BBX 25 41 2 0
BITMAP
0001E000
00031000
00001800
00001000
00003000
00006000
001C0000
00360000
00630000
00C18000
0180C000
00000000
00000000
003E0000
01FFC000
07007000
0C001800
18000C00
10000400
30000600
20000200
60000300
40000100
40000100
40000100
C0000100
C0000180
C0000180
C0000180
C0000100
40000100
40000100
60000300
60000300
20000200
30000600
18000C00
0C001800
06003000
03C1E000
00FF8000
ENDCHAR
STARTCHAR 1ED5
ENCODING 7893
SWIDTH 591 0
DWIDTH 23 0
BBX 19 34 2 0
BITMAP
000F80
0018C0
0000C0
0000C0
000180
000300
00E000
01B000
031800
060C00
0C0600
000000
000000
01F800
071E00
1C0300
100180
3000C0
600040
600040
400060
400060
C00020
C00020
C00020
400020
400060
400040
600040
2000C0
300180
180300
0E0E00
03F800
ENDCHAR
STARTCHAR 1ED6
ENCODING 7894
SWIDTH 720 0
DWIDTH 28 0
BBX 25 40 2 0
BITMAP
0070C000
00D88000
008F8000
00820000
00000000
001C0000
00360000
00630000
00C18000
0180C000
00000000
00000000
003E0000
01FFC000
07007000
0C001800
18000C00
10000400
30000600
20000200
60000300
40000100
40000100
40000100
C0000100
C0000180
C0000180
C0000180
C0000100
40000100
40000100
60000300
60000300
20000200
30000600
18000C00
0C001800
06003000
03C1E000
00FF8000
ENDCHAR
STARTCHAR 1ED7
ENCODING 7895
SWIDTH 591 0
DWIDTH 23 0
BBX 19 33 2 0
BITMAP
038600
066600
043C00
000000
000000
00E000
01B000
031800
060C00
040600
000000
000000
01F800
071E00
1C0300
100180
3000C0
600040
600040
400060
400060
C00020
C00020
C00020
400020
400060
400040
600040
2000C0
300180
180300
0E0E00
03F800
ENDCHAR
STARTCHAR 1ED8
ENCODING 7896
SWIDTH 720 0
DWIDTH 28 0
BBX 25 43 2 -8
BITMAP
001C0000
00360000
00630000
00C18000
0180C000
00000000
00000000
003E0000
01FFC000
07007000
0C001800
18000C00
10000400
30000600
20000200
60000300
40000100
40000100
40000100
C0000100
C0000180
C0000180
C0000180
C0000100
40000100
40000100
60000300
60000300
20000200
30000600
18000C00
0C001800
06003000
03C1E000
00FF8000
00000000
00000000
00000000
00000000
00000000
001C0000
001C0000
00080000
ENDCHAR
STARTCHAR 1ED9
ENCODING 7897
SWIDTH 591 0
DWIDTH 23 0
BBX 19 36 2 -8
BITMAP
00E000
01B000
031800
060C00
040600
000000
000000
01F800
071E00
1C0300
100180
3000C0
600040
600040
400060
400060
C00020
C00020
C00020
400020
400060
400040
600040
2000C0
300180
180300
0E0E00
03F800
000000
000000
000000
000000
000000
006000
00E000
006000
ENDCHAR
STARTCHAR 1EDA
ENCODING 7898
SWIDTH 720 0
DWIDTH 28 0
BBX 25 36 2 0
BITMAP
00018000
00010000
00030000
00020000
00040000
000C0000
00000C00
00000800
003E1800
01FFF000
07007000
0C001800
18000C00
10000400
30000600
20000200
60000300
40000100
40000100
40000100
C0000100
C0000180
C0000180
C0000180
C0000100
40000100
40000100
60000300
60000300
20000200
30000600
18000C00
0C001800
06003000
03C1E000
00FF8000
ENDCHAR
STARTCHAR 1EDB
ENCODING 7899
SWIDTH 591 0
DWIDTH 23 0
BBX 19 29 2 0
BITMAP
000400
000C00
001800
001000
002000
002000
000040
000040
01F9C0
071F80
1C0300
100180
3000C0
600040
600040
400060
400060
C00020
C00020
C00020
400020
400060
400040
600040
2000C0
300180
180300
0E0E00
03F800
ENDCHAR
STARTCHAR 1EDC
ENCODING 7900
SWIDTH 720 0
DWIDTH 28 0
BBX 25 36 2 0
BITMAP
00C00000
00400000
00600000
00200000
00100000
00180000
00000C00
00000800
003E1800
01FFF000
07007000
0C001800
18000C00
10000400
30000600
20000200
60000300
40000100
40000100
40000100
C0000100
C0000180
C0000180
C0000180
C0000100
40000100
40000100
60000300
60000300
20000200
30000600
18000C00
0C001800
06003000
03C1E000
00FF8000
ENDCHAR
STARTCHAR 1EDD
ENCODING 7901
SWIDTH 591 0
DWIDTH 23 0
BBX 19 29 2 0
BITMAP
060000
030000
010000
018000
008000
004000
000040
000040
01F9C0
071F80
1C0300
100180
3000C0
600040
600040
400060
400060
C00020
C00020
C00020
400020
400060
400040
600040
2000C0
300180
180300
0E0E00
03F800
ENDCHAR
STARTCHAR 1EDE
ENCODING 7902
SWIDTH 720 0
DWIDTH 28 0
BBX 25 36 2 0
BITMAP
003E0000
00230000
00010000
00030000
00060000
000C0000
00000C00
00000800
003E1800
01FFF000
07007000
0C001800
18000C00
10000400
30000600
20000200
60000300
40000100
40000100
40000100
C0000100
C0000180
C0000180
C0000180
C0000100
40000100
40000100
60000300
60000300
20000200
30000600
18000C00
0C001800
06003000
03C1E000
00FF8000
ENDCHAR
STARTCHAR 1EDF
ENCODING 7903
SWIDTH 591 0
DWIDTH 23 0
BBX 19 29 2 0
BITMAP
01F000
010800
000800
000800
003000
006000
000040
000040
01F9C0
071F80
1C0300
100180
3000C0
600040
600040
400060
400060
C00020
C00020
C00020
400020
400060
400040
600040
2000C0
300180
180300
0E0E00
03F800
ENDCHAR
STARTCHAR 1EE0
ENCODING 7904
SWIDTH 720 0
DWIDTH 28 0
BBX 25 35 2 0
BITMAP
00608000
00F88000
008D8000
00870000
00000000
00000C00
00000800
003E1800
01FFF000
07007000
0C001800
18000C00
10000400
30000600
20000200
60000300
40000100
40000100
40000100
C0000100
C0000180
C0000180
C0000180
C0000100
40000100
40000100
60000300
60000300
20000200
30000600
18000C00
0C001800
06003000
03C1E000
00FF8000
ENDCHAR
STARTCHAR 1EE1
ENCODING 7905
SWIDTH 591 0
DWIDTH 23 0
BBX 19 28 2 0
BITMAP
038600
06C400
043C00
041800
000000
000040
000040
01F9C0
071F80
1C0300
100180
3000C0
600040
600040
400060
400060
C00020
C00020
C00020
400020
400060
400040
600040
2000C0
300180
180300
0E0E00
03F800
ENDCHAR
STARTCHAR 1EE2
ENCODING 7906
SWIDTH 720 0
DWIDTH 28 0
BBX 25 38 2 -8
BITMAP
00000C00
00000800
003E1800
01FFF000
07007000
0C001800
18000C00
10000400
30000600
20000200
60000300
40000100
40000100
40000100
C0000100
C0000180
C0000180
C0000180
C0000100
40000100
40000100
60000300
60000300
20000200
30000600
18000C00
0C001800
06003000
03C1E000
00FF8000
00000000
00000000
00000000
00000000
00000000
001C0000
001C0000
00080000
ENDCHAR
STARTCHAR 1EE3
ENCODING 7907
SWIDTH 591 0
DWIDTH 23 0
BBX 19 31 2 -8
BITMAP
000040
000040
01F9C0
071F80
1C0300
100180
3000C0
600040
600040
400060
400060
C00020
C00020
C00020
400020
400060
400040
600040
2000C0
300180
180300
0E0E00
03F800
000000
000000
000000
000000
000000
006000
00E000
006000
ENDCHAR
STARTCHAR 1EE4
ENCODING 7908
SWIDTH 668 0
DWIDTH 26 0
BBX 21 35 3 -8
BITMAP
800018
800018
800018
800018
800018
800018
800018
800018
800018
800018
800018
800018
800018
800018
800018
800018
800018
800010
C00010
C00010
400030
400020
600020
300040
1800C0
0E0380
03FE00
000000
000000
000000
000000
000000
006000
007000
002000
ENDCHAR
STARTCHAR 1EE5
ENCODING 7909
SWIDTH 591 0
DWIDTH 23 0
BBX 17 28 4 -8
BITMAP
800180
800180
800180
800180
800180
800180
800180
800180
800180
800180
800180
800180
800180
800180
800180
C00380
600780
700D80
3C3980
0FE180
000000
000000
000000
000000
000000
030000
038000
030000
ENDCHAR
STARTCHAR 1EE6
ENCODING 7910
SWIDTH 668 0
DWIDTH 26 0
BBX 21 36 3 0
BITMAP
00F800
018800
000C00
000C00
001800
003000
000000
000000
000000
800018
800018
800018
800018
800018
800018
800018
800018
800018
800018
800018
800018
800018
800018
800018
800018
800018
800010
C00010
C00010
400030
400020
600020
300040
1800C0
0E0380
03FE00
ENDCHAR
STARTCHAR 1EE7
ENCODING 7911
SWIDTH 591 0
DWIDTH 23 0
BBX 17 29 4 0
BITMAP
07C000
0C4000
006000
004000
00C000
010000
000000
000000
000000
800180
800180
800180
800180
800180
800180
800180
800180
800180
800180
800180
800180
800180
800180
800180
C00380
600780
700D80
3C3980
0FE180
ENDCHAR
STARTCHAR 1EE8
ENCODING 7912
SWIDTH 668 0
DWIDTH 26 0
BBX 25 36 3 0
BITMAP
00060000
00040000
000C0000
00180000
00100000
00300000
00000180
00000180
00000300
80001E00
80001800
80001800
80001800
80001800
80001800
80001800
80001800
80001800
80001800
80001800
80001800
80001800
80001800
80001800
80001800
80001800
80001000
C0001000
C0001000
40003000
40002000
60002000
30004000
1800C000
0E038000
03FE0000
ENDCHAR
STARTCHAR 1EE9
ENCODING 7913
SWIDTH 617 0
DWIDTH 24 0
BBX 21 29 4 0
BITMAP
003000
006000
004000
00C000
008000
010000
000018
000010
000030
8001E0
800180
800180
800180
800180
800180
800180
800180
800180
800180
800180
800180
800180
800180
800180
C00380
600780
700D80
3C3980
0FE180
ENDCHAR
STARTCHAR 1EEA
ENCODING 7914
SWIDTH 668 0
DWIDTH 26 0
BBX 25 36 3 0
BITMAP
02000000
03000000
01800000
00800000
00C00000
00400000
00000180
00000180
00000300
80001E00
80001800
80001800
80001800
80001800
80001800
80001800
80001800
80001800
80001800
80001800
80001800
80001800
80001800
80001800
80001800
80001800
80001000
C0001000
C0001000
40003000
40002000
60002000
30004000
1800C000
0E038000
03FE0000
ENDCHAR
STARTCHAR 1EEB
ENCODING 7915
SWIDTH 617 0
DWIDTH 24 0
BBX 21 29 4 0
BITMAP
180000
180000
0C0000
040000
020000
020000
000018
000010
000030
8001E0
800180
800180
800180
800180
800180
800180
800180
800180
800180
800180
800180
800180
800180
800180
C00380
600780
700D80
3C3980
0FE180
ENDCHAR
STARTCHAR 1EEC
ENCODING 7916
SWIDTH 668 0
DWIDTH 26 0
BBX 25 36 3 0
BITMAP
00F80000
01880000
000C0000
000C0000
00180000
00300000
00000180
00000180
00000300
80001E00
80001800
80001800
80001800
80001800
80001800
80001800
80001800
80001800
80001800
80001800
80001800
80001800
80001800
80001800
80001800
80001800
80001000
C0001000
C0001000
40003000
40002000
60002000
30004000
1800C000
0E038000
03FE0000
ENDCHAR
STARTCHAR 1EED
ENCODING 7917
SWIDTH 617 0
DWIDTH 24 0
BBX 21 29 4 0
BITMAP
07C000
0C4000
006000
004000
00C000
010000
000018
000010
000030
8001E0
800180
800180
800180
800180
800180
800180
800180
800180
800180
800180
800180
800180
800180
800180
C00380
600780
700D80
3C3980
0FE180
ENDCHAR
STARTCHAR 1EEE
ENCODING 7918
SWIDTH 668 0
DWIDTH 26 0
BBX 25 35 3 0
BITMAP
00820000
03E20000
02360000
061C0000
00000000
00000180
00000180
00000300
80001E00
80001800
80001800
80001800
80001800
80001800
80001800
80001800
80001800
80001800
80001800
80001800
80001800
80001800
80001800
80001800
80001800
80001000
C0001000
C0001000
40003000
40002000
60002000
30004000
1800C000
0E038000
03FE0000
ENDCHAR
STARTCHAR 1EEF
ENCODING 7919
SWIDTH 591 0
DWIDTH 23 0
BBX 21 28 4 0
BITMAP
0E0800
0B1800
10F000
106000
000000
000018
000010
000030
8001E0
800180
800180
800180
800180
800180
800180
800180
800180
800180
800180
800180
800180
800180
800180
C00380
600780
700D80
3C3980
0FE180
ENDCHAR
STARTCHAR 1EF0
ENCODING 7920
SWIDTH 668 0
DWIDTH 26 0
BBX 25 38 3 -8
BITMAP
00000180
00000180
00000300
80001E00
80001800
80001800
80001800
80001800
80001800
80001800
80001800
80001800
80001800
80001800
80001800
80001800
80001800
80001800
80001800
80001800
80001000
C0001000
C0001000
40003000
40002000
60002000
30004000
1800C000
0E038000
03FE0000
00000000
00000000
00000000
00000000
00000000
00600000
00700000
00200000
ENDCHAR
STARTCHAR 1EF1
ENCODING 7921
SWIDTH 617 0
DWIDTH 24 0
BBX 21 31 4 -8
BITMAP
000018
000010
000030
8001E0
800180
800180
800180
800180
800180
800180
800180
800180
800180
800180
800180
800180
800180
800180
C00380
600780
700D80
3C3980
0FE180
000000
000000
000000
000000
000000
030000
038000
030000
ENDCHAR
STARTCHAR 1EF2
ENCODING 7922
SWIDTH 565 0
DWIDTH 22 0
BBX 18 36 2 0
BITMAP
040000
060000
020000
010000
018000
008000
000000
000000
000000
C00040
4000C0
600080
200180
300100
100300
180200
080600
0C0C00
040C00
061800
021800
033000
013000
01E000
00E000
00C000
00C000
00C000
00C000
00C000
00C000
00C000
00C000
00C000
00C000
00C000
ENDCHAR
STARTCHAR 1EF3
ENCODING 7923
SWIDTH 514 0
DWIDTH 20 0
BBX 17 36 2 -7
BITMAP
180000
0C0000
040000
020000
030000
010000
000000
000000
000000
800180
C00100
400300
600200
200600
200600
300400
100C00
180800
081800
081000
0C3000
042000
062000
026000
024000
03C000
018000
018000
010000
030000
030000
020000
060000
040000
180000
F00000
ENDCHAR
STARTCHAR 1EF4
ENCODING 7924
SWIDTH 565 0
DWIDTH 22 0
BBX 18 35 2 -8
BITMAP
C00040
4000C0
600080
200180
300100
100300
180200
080600
0C0C00
040C00
061800
021800
033000
013000
01E000
00E000
00C000
00C000
00C000
00C000
00C000
00C000
00C000
00C000
00C000
00C000
00C000
000000
000000
000000
000000
000000
00C000
00E000
00C000
ENDCHAR
STARTCHAR 1EF5
ENCODING 7925
SWIDTH 514 0
DWIDTH 20 0
BBX 17 28 2 -8
BITMAP
800180
C00100
400300
600200
200600
200600
300400
100C00
180800
081800
081000
0C3000
042000
062000
026000
024000
03C000
018000
018000
010000
030000
030000
020000
060000
040000
180C00
F01C00
000C00
ENDCHAR
STARTCHAR 1EF6
ENCODING 7926
SWIDTH 565 0
DWIDTH 22 0
BBX 18 36 2 0
BITMAP
01F000
031000
001800
001000
003000
006000
000000
000000
000000
C00040
4000C0
600080
200180
300100
100300
180200
080600
0C0C00
040C00
061800
021800
033000
013000
01E000
00E000
00C000
00C000
00C000
00C000
00C000
00C000
00C000
00C000
00C000
00C000
00C000
ENDCHAR
STARTCHAR 1EF7
ENCODING 7927
SWIDTH 514 0
DWIDTH 20 0
BBX 17 36 2 -7
BITMAP
03E000
042000
002000
002000
004000
008000
000000
000000
000000
800180
C00100
400300
600200
200600
200600
300400
100C00
180800
081800
081000
0C3000
042000
062000
026000
024000
03C000
018000
018000
010000
030000
030000
020000
060000
040000
180000
F00000
ENDCHAR
STARTCHAR 1EF8
ENCODING 7928
SWIDTH 565 0
DWIDTH 22 0
BBX 18 35 2 0
BITMAP
030400
078400
0C6C00
0C3800
000000
000000
000000
000000
C00040
4000C0
600080
200180
300100
100300
180200
080600
0C0C00
040C00
061800
021800
033000
013000
01E000
00E000
00C000
00C000
00C000
00C000
00C000
00C000
00C000
00C000
00C000
00C000
00C000
ENDCHAR
STARTCHAR 1EF9
ENCODING 7929
SWIDTH 514 0
DWIDTH 20 0
BBX 17 35 2 -7
BITMAP
060800
091800
18F000
102000
000000
000000
000000
000000
800180
C00100
400300
600200
200600
200600
300400
100C00
180800
081800
081000
0C3000
042000
062000
026000
024000
03C000
018000
018000
010000
030000
030000
020000
060000
040000
180000
F00000
ENDCHAR
STARTCHAR 2013
ENCODING 8211
SWIDTH 642 0
DWIDTH 25 0
BBX 16 2 5 11
BITMAP
FFFF
FFFF
ENDCHAR
STARTCHAR 2014
ENCODING 8212
SWIDTH 771 0
DWIDTH 30 0
BBX 20 2 5 11
BITMAP
FFFFF0
FFFFF0
ENDCHAR
STARTCHAR 2018
ENCODING 8216
SWIDTH 282 0
DWIDTH 11 0
BBX 4 8 4 21
BITMAP
30
40
40
C0
C0
F0
70
20
ENDCHAR
STARTCHAR 2019
ENCODING 8217
SWIDTH 231 0
DWIDTH 9 0
BBX 4 8 4 17
BITMAP
E0
E0
70
30
20
20
40
80
ENDCHAR
STARTCHAR 201A
ENCODING 8218
SWIDTH 282 0
DWIDTH 11 0
BBX 4 8 3 -5
BITMAP
60
F0
F0
30
30
20
20
C0
ENDCHAR
STARTCHAR 201C
ENCODING 8220
SWIDTH 488 0
DWIDTH 19 0
BBX 12 8 4 21
BITMAP
3020
4040
40C0
C080
C0C0
F0F0
70F0
6000
ENDCHAR
STARTCHAR 201D
ENCODING 8221
SWIDTH 488 0
DWIDTH 19 0
BBX 11 8 4 18
BITMAP
E0C0
E1E0
E0E0
2020
2020
6040
40C0
8080
ENDCHAR
STARTCHAR 201E
ENCODING 8222
SWIDTH 488 0
DWIDTH 19 0
BBX 12 8 3 -5
BITMAP
6060
F0F0
F0F0
1030
1030
3020
2060
40C0
ENDCHAR
STARTCHAR 2020
ENCODING 8224
SWIDTH 565 0
DWIDTH 22 0
BBX 14 36 4 -9
BITMAP
0300
0300
0300
0300
0300
0300
0300
FFFC
0300
0300
0300
0300
0300
0300
0300
0300
0300
0300
0300
0300
0300
0300
0300
0300
0300
0300
0300
0300
0300
0300
0300
0300
0300
0300
0300
0300
ENDCHAR
STARTCHAR 2021
ENCODING 8225
SWIDTH 565 0
DWIDTH 22 0
BBX 14 36 4 -9
BITMAP
0300
0300
0300
0300
0300
0300
0300
FFFC
0300
0300
0300
0300
0300
0300
0300
0300
0300
0300
0300
0300
0300
0300
0300
0300
0300
0300
0300
0300
FFFC
0300
0300
0300
0300
0300
0300
0300
ENDCHAR
STARTCHAR 2022
ENCODING 8226
SWIDTH 282 0
DWIDTH 11 0
BBX 6 5 3 12
BITMAP
78
FC
FC
F8
78
ENDCHAR
STARTCHAR 2026
ENCODING 8230
SWIDTH 720 0
DWIDTH 28 0
BBX 21 3 3 0
BITMAP
802010
C07038
C07018
ENDCHAR
STARTCHAR 2030
ENCODING 8240
SWIDTH 1208 0
DWIDTH 47 0
BBX 46 28 1 0
BITMAP
060000000000
338002000000
408006000000
C0C00C000000
C04008000000
804018000000
804010000000
C04030000000
C0C020000000
408060000000
338040000000
0400C0000000
000080000000
000180000000
000100000000
000300000000
000200000000
000600F001E0
0004030C0610
000C02040C08
00080606080C
00180402080C
00100402080C
00300402080C
00200602080C
006006060C08
004002040418
00C001F803F0
ENDCHAR
STARTCHAR 2039
ENCODING 8249
SWIDTH 308 0
DWIDTH 12 0
BBX 9 15 2 5
BITMAP
0380
0600
0C00
0800
1000
2000
4000
8000
4000
2000
1000
0800
0400
0200
0180
ENDCHAR
STARTCHAR 203A
ENCODING 8250
SWIDTH 308 0
DWIDTH 12 0
BBX 9 15 2 5
BITMAP
C000
6000
3000
1800
0C00
0600
0300
0180
0300
0600
0C00
1800
3000
6000
C000
ENDCHAR
STARTCHAR 2044
ENCODING 8260
SWIDTH 437 0
DWIDTH 17 0
BBX 17 27 0 0
BITMAP
000180
000100
000300
000200
000600
000400
000800
001800
001000
003000
002000
004000
00C000
008000
018000
010000
020000
060000
040000
0C0000
080000
100000
300000
200000
600000
400000
800000
ENDCHAR
STARTCHAR 2070
ENCODING 8304
SWIDTH 308 0
DWIDTH 12 0
BBX 10 15 1 14
BITMAP
3F00
2080
40C0
4040
C040
8040
8040
8040
8040
C040
4040
40C0
2080
3B00
0C00
ENDCHAR
STARTCHAR 2074
ENCODING 8308
SWIDTH 308 0
DWIDTH 12 0
BBX 10 14 1 15
BITMAP
0300
0700
0500
0900
1900
1100
2100
6100
4100
8100
FFC0
0100
0100
0100
ENDCHAR
STARTCHAR 2075
ENCODING 8309
SWIDTH 282 0
DWIDTH 11 0
BBX 10 14 1 15
BITMAP
7F80
4000
4000
4000
6C00
7300
C080
00C0
0040
0040
00C0
C080
6180
3E00
ENDCHAR
STARTCHAR 2076
ENCODING 8310
SWIDTH 282 0
DWIDTH 11 0
BBX 10 14 1 15
BITMAP
0C00
0800
1000
3000
2000
5E00
6180
C080
80C0
8040
8040
4080
6180
3F00
ENDCHAR
STARTCHAR 2077
ENCODING 8311
SWIDTH 282 0
DWIDTH 11 0
BBX 9 14 1 15
BITMAP
FF80
0080
0100
0100
0200
0200
0600
0400
0C00
0800
0800
1000
1000
3000
ENDCHAR
STARTCHAR 2078
ENCODING 8312
SWIDTH 308 0
DWIDTH 12 0
BBX 10 15 1 14
BITMAP
3F00
6080
4040
4040
40C0
6080
1F00
2180
4040
8040
8040
C040
40C0
3B80
0400
ENDCHAR
STARTCHAR 2079
ENCODING 8313
SWIDTH 282 0
DWIDTH 11 0
BBX 10 14 1 15
BITMAP
3F00
6180
C080
80C0
8040
80C0
40C0
6180
1F80
0100
0300
0200
0400
0C00
ENDCHAR
STARTCHAR 2080
ENCODING 8320
SWIDTH 308 0
DWIDTH 12 0
BBX 10 15 1 -10
BITMAP
1F00
2080
4080
4040
C040
8040
8040
8040
8040
C040
4040
40C0
6080
3B00
0C00
ENDCHAR
STARTCHAR 2081
ENCODING 8321
SWIDTH 231 0
DWIDTH 9 0
BBX 7 15 1 -10
BITMAP
10
30
50
90
10
10
10
10
10
10
10
10
10
10
FE
ENDCHAR
STARTCHAR 2082
ENCODING 8322
SWIDTH 282 0
DWIDTH 11 0
BBX 10 15 1 -10
BITMAP
3F00
6180
4080
C080
C080
0080
0180
0300
0600
0C00
1800
3000
6000
C000
FFC0
ENDCHAR
STARTCHAR 2083
ENCODING 8323
SWIDTH 282 0
DWIDTH 11 0
BBX 10 15 1 -10
BITMAP
3F00
6180
4080
0080
0080
0080
1F00
1F00
0080
0080
00C0
8080
4080
7300
1C00
ENDCHAR
STARTCHAR 2084
ENCODING 8324
SWIDTH 308 0
DWIDTH 12 0
BBX 10 15 1 -10
BITMAP
0100
0300
0500
0D00
0900
1100
3100
2100
4100
C100
FFC0
0100
0100
0100
0100
ENDCHAR
STARTCHAR 2085
ENCODING 8325
SWIDTH 282 0
DWIDTH 11 0
BBX 10 15 1 -10
BITMAP
7F80
4000
4000
4000
5000
7F00
A180
C080
0040
0040
0040
8080
4080
3300
1E00
ENDCHAR
STARTCHAR 2086
ENCODING 8326
SWIDTH 282 0
DWIDTH 11 0
BBX 10 15 1 -10
BITMAP
0400
0800
1800
1000
2000
6C00
7700
C080
C0C0
8040
8040
C0C0
4080
3300
0C00
ENDCHAR
STARTCHAR 2087
ENCODING 8327
SWIDTH 282 0
DWIDTH 11 0
BBX 9 15 1 -10
BITMAP
FF80
0080
0100
0100
0300
0200
0200
0400
0400
0800
0800
1800
1000
1000
2000
ENDCHAR
STARTCHAR 2088
ENCODING 8328
SWIDTH 308 0
DWIDTH 12 0
BBX 10 15 1 -10
BITMAP
3F00
6080
40C0
4040
40C0
6080
3F00
3180
40C0
C040
8040
C040
40C0
3380
0E00
ENDCHAR
STARTCHAR 2089
ENCODING 8329
SWIDTH 282 0
DWIDTH 11 0
BBX 10 15 1 -10
BITMAP
3E00
6180
4080
80C0
8040
80C0
C0C0
6180
3E80
0100
0300
0200
0400
0C00
0800
ENDCHAR
STARTCHAR 20AB
ENCODING 8363
SWIDTH 591 0
DWIDTH 23 0
BBX 20 32 2 0
BITMAP
000040
000040
000040
000040
007FF0
000040
000040
00C040
0FF840
180E40
200340
600140
C000C0
C000C0
8000C0
8000C0
800040
8000C0
8000C0
8000C0
C000C0
4001C0
600340
380640
0FFC40
03E040
000000
000000
000000
000000
000000
3FFFC0
ENDCHAR
STARTCHAR 20AC
ENCODING 8364
SWIDTH 720 0
DWIDTH 28 0
BBX 25 27 1 0
BITMAP
001FC000
00787000
00C01C00
01800600
03000200
02000300
04000100
04000180
0C000080
0C000000
FFFE0000
08000000
08000000
08000000
08000000
08000000
FFFE0000
0C000000
0C000000
04000180
04000100
06000300
03000200
01800600
00C01C00
00707000
001FE000
ENDCHAR
STARTCHAR 2122
ENCODING 8482
SWIDTH 360 0
DWIDTH 14 0
BBX 12 6 2 21
BITMAP
F630
6670
6570
65B0
64B0
6430
ENDCHAR
STARTCHAR 215B
ENCODING 8539
SWIDTH 874 0
DWIDTH 34 0
BBX 30 27 2 0
BITMAP
30000600
70000400
B0000C00
30000800
30001800
30003000
30002000
30006000
30004000
3000C000
30018000
30010000
FC030000
000200F0
00060318
0004020C
00080604
0018060C
00100208
003001F0
00200318
00400604
00C00404
00800404
01800404
0100020C
020001F0
ENDCHAR
STARTCHAR 215C
ENCODING 8540
SWIDTH 797 0
DWIDTH 31 0
BBX 28 27 2 0
BITMAP
7E000400
43000C00
81001800
01001000
01003000
03002000
1E006000
03004000
01008000
01818000
01810000
81030000
67020000
3C040780
000C0C60
00081820
00181030
00101030
00200820
006007C0
00400C60
00C01030
00801010
01001010
03001010
02001820
06000FC0
ENDCHAR
STARTCHAR 215D
ENCODING 8541
SWIDTH 874 0
DWIDTH 34 0
BBX 31 27 2 0
BITMAP
FF000600
80000400
80000C00
80001800
BE001000
C3003000
81002000
01806000
0180C000
01808000
81018000
C3010000
7E030000
000600F0
00040318
000C020C
00080604
00180204
00300208
002001F8
00600318
00400604
00C00404
01800406
01000404
0300020C
020001F8
ENDCHAR
STARTCHAR 215E
ENCODING 8542
SWIDTH 874 0
DWIDTH 34 0
BBX 31 27 2 0
BITMAP
FF000600
01000400
03000C00
02000800
06001800
04003000
0C002000
08006000
08004000
1800C000
10018000
30010000
20030000
000200F0
00060108
00040204
00080204
00180204
0010030C
003001F8
0020010C
00400204
00C00602
00800602
01800606
0100030C
020001F8
ENDCHAR
STARTCHAR 2212
ENCODING 8722
SWIDTH 591 0
DWIDTH 23 0
BBX 14 1 5 12
BITMAP
FFFC
ENDCHAR
STARTCHAR 2215
ENCODING 8725
SWIDTH 462 0
DWIDTH 18 0
BBX 14 27 3 0
BITMAP
0004
0004
000C
0008
0018
0010
0030
0020
0060
0040
00C0
0080
0180
0100
0300
0200
0600
0400
0C00
0800
1800
1000
3000
2000
6000
4000
C000
ENDCHAR
STARTCHAR 2248
ENCODING 8776
SWIDTH 514 0
DWIDTH 20 0
BBX 13 11 4 7
BITMAP
7C18
C718
81E0
0000
0000
0000
0000
3808
7E18
C3F0
80C0
ENDCHAR
STARTCHAR 2260
ENCODING 8800
SWIDTH 694 0
DWIDTH 27 0
BBX 18 23 5 1
BITMAP
000300
000200
000600
000400
000C00
000800
FFFFC0
FFFFC0
002000
006000
004000
00C000
018000
010000
030000
FFFFC0
060000
040000
080000
180000
100000
300000
200000
ENDCHAR
STARTCHAR 2264
ENCODING 8804
SWIDTH 591 0
DWIDTH 23 0
BBX 16 21 4 0
BITMAP
0002
000E
0038
00E0
0180
0600
1C00
7000
6000
1800
0E00
0380
00C0
0030
000C
0006
0000
0000
0000
0000
FFFF
ENDCHAR
STARTCHAR 2265
ENCODING 8805
SWIDTH 591 0
DWIDTH 23 0
BBX 16 21 4 0
BITMAP
4000
7000
1C00
0600
0380
00E0
0038
000C
0006
0018
0060
01C0
0700
1C00
3000
4000
0000
0000
0000
0000
FFFF
ENDCHAR
ENDFONT
